<svg width="24" height="24" viewBox="0 0 24 24" fill="none" xmlns="http://www.w3.org/2000/svg">
<path fill-rule="evenodd" clip-rule="evenodd" d="M8.86146 1.53598C8.79115 1.55697 8.54141 1.77062 8.26552 2.04578L7.79062 2.51941L7.09509 2.22868C6.71252 2.06874 6.29879 1.91154 6.17566 1.87936C5.66599 1.74598 5.1015 1.86267 4.67887 2.1887C4.55825 2.28177 4.23926 2.58431 3.96997 2.86102C3.40753 3.439 3.32385 3.59177 3.35259 3.98865C3.36539 4.16573 3.40118 4.27914 3.48347 4.40353C3.5915 4.56675 4.69297 5.40509 9.5262 9.00265L10.5619 9.77357L9.41427 11.0964C8.78307 11.824 8.24958 12.4677 8.22875 12.5269C8.15716 12.7303 8.37348 12.9601 8.58459 12.9049C8.63756 12.8911 10.1231 11.2102 12.1975 8.81683C14.1351 6.58134 15.8465 4.62588 16.0005 4.47139C16.6863 3.78361 17.6442 3.20497 18.5766 2.91535C19.1784 2.72847 20.1966 2.57066 20.5465 2.6101C20.803 2.63905 21.0272 2.79924 21.1415 3.03523C21.2341 3.22646 21.2349 3.23982 21.1851 3.74519C21.0713 4.89902 20.7462 5.8854 20.1887 6.76826C19.9954 7.07429 19.989 7.2389 20.1653 7.36994C20.2555 7.43697 20.3002 7.44583 20.3897 7.41434C20.5329 7.36399 20.7857 7.00221 21.0464 6.47425C21.4945 5.56679 21.6908 4.85474 21.798 3.74745C21.8417 3.2964 21.8396 3.20686 21.7807 3.00407C21.6473 2.5454 21.2882 2.17956 20.8408 2.04672C20.5786 1.96886 20.4316 1.96915 19.7672 2.0491C18.8724 2.15672 18.1995 2.35123 17.4286 2.72503C16.5041 3.17328 15.7994 3.74122 14.9133 4.75228C14.6762 5.02288 14.4691 5.24974 14.4531 5.25642C14.4372 5.2631 14.0525 5.11374 13.598 4.92452C12.862 4.61805 12.7794 4.57422 12.8414 4.52288C12.9424 4.43937 13.0601 4.15913 13.0612 3.99997C13.0626 3.78033 12.9583 3.61748 12.5779 3.24524C11.9642 2.64462 11.7718 2.65274 11.1059 3.3076L10.6871 3.71932L10.3063 3.56204C10.0969 3.47553 9.91759 3.39862 9.90783 3.39116C9.89811 3.38365 9.94793 3.31785 10.0185 3.24491C10.2456 3.0103 10.3269 2.70551 10.2309 2.44868C10.1693 2.2839 9.54625 1.66218 9.35154 1.5712C9.17417 1.48834 9.05072 1.47944 8.86146 1.53598ZM9.38126 2.38341C9.53403 2.53503 9.65904 2.6787 9.65904 2.70272C9.65904 2.72671 9.57118 2.8329 9.4638 2.93868L9.26855 3.13097L8.85904 2.96315C8.63383 2.87082 8.44129 2.78763 8.43121 2.77828C8.41222 2.7607 9.04691 2.10777 9.08303 2.10777C9.0943 2.10777 9.2285 2.23179 9.38126 2.38341ZM10.0075 4.09267C12.1724 4.9902 13.959 5.73891 13.9779 5.7565C14.0199 5.79573 11.0237 9.2623 10.9477 9.2623C10.9038 9.2623 4.86054 4.78299 4.15648 4.22858C3.97826 4.08824 3.96001 4.05806 3.96001 3.90374C3.96001 3.74011 3.9808 3.7128 4.50384 3.1898C5.16579 2.52786 5.34373 2.42458 5.78452 2.44655C6.05545 2.46004 6.29202 2.55225 10.0075 4.09267ZM12.1693 3.69542C12.322 3.84704 12.4471 3.99103 12.4471 4.01538C12.4471 4.03974 12.3843 4.12051 12.3076 4.19484L12.1682 4.33002L11.7329 4.15339L11.2977 3.97676L11.574 3.69825C11.726 3.54511 11.8596 3.41977 11.8709 3.41977C11.8822 3.41977 12.0165 3.5438 12.1693 3.69542ZM17.5604 4.0351C17.4223 4.1438 17.4079 4.3538 17.531 4.46524C17.5761 4.50603 17.7467 4.5647 17.9102 4.59562C18.6473 4.73498 19.0643 5.15945 19.2272 5.93624C19.2589 6.08774 19.3175 6.24768 19.3573 6.29171C19.4594 6.40451 19.6449 6.39368 19.771 6.26752C19.8657 6.17285 19.8726 6.14374 19.8463 5.94977C19.7195 5.01612 19.1837 4.34749 18.3511 4.08373C17.9135 3.94515 17.6921 3.93154 17.5604 4.0351ZM19.2435 7.98568C19.1835 8.0113 17.0993 9.79567 14.612 11.9509C12.1246 14.1061 9.92349 16.0067 9.72054 16.1743C8.66183 17.0488 7.37754 17.8872 6.19452 18.4762C5.70969 18.7176 5.63655 18.7329 5.42118 18.6376C5.2425 18.5585 5.10802 18.3658 5.10802 18.1887C5.10802 18.0789 5.6056 17.0794 5.94934 16.4988C6.42761 15.6911 6.98496 14.8928 7.57242 14.1741C7.88488 13.7919 7.93232 13.6241 7.77303 13.4648C7.57078 13.2626 7.40308 13.3844 6.78927 14.1795C6.6053 14.4178 6.43769 14.6128 6.41683 14.6128C6.396 14.6128 5.747 14.3275 4.97473 13.9789C4.2024 13.6303 3.47514 13.3246 3.35858 13.2997C3.10405 13.2453 2.76748 13.2965 2.48733 13.4321C2.26035 13.542 1.6551 14.1139 1.56515 14.3034C1.52932 14.3789 1.5 14.4905 1.5 14.5513C1.5 14.8342 1.57827 14.9065 3.19819 16.1202C4.05694 16.7635 4.76677 17.296 4.77567 17.3035C4.78457 17.3109 4.73086 17.4511 4.65632 17.6151C4.41884 18.1376 4.4849 18.62 4.84287 18.978C5.18715 19.3223 5.67792 19.3924 6.1609 19.1664C6.3085 19.0973 6.45024 19.0416 6.47587 19.0425C6.50153 19.0435 7.03913 19.7367 7.67053 20.5832C8.30193 21.4296 8.86527 22.156 8.92243 22.1975C9.06359 22.2999 9.28573 22.3359 9.43395 22.2805C9.60635 22.216 10.261 21.5589 10.3764 21.3344C10.4292 21.2317 10.4883 21.0564 10.5076 20.9449C10.5781 20.5385 10.5259 20.3681 9.92542 19.0408C9.61423 18.3531 9.31767 17.696 9.26638 17.5808L9.1731 17.3712L9.44633 17.1708C9.85896 16.8681 10.2992 16.4969 12.2371 14.8178C13.2131 13.9722 14.024 13.2763 14.0391 13.2715C14.0542 13.2667 15.2012 14.7858 16.5881 16.6475C17.9749 18.509 19.1715 20.105 19.2472 20.1939C19.4378 20.4179 19.6719 20.5298 19.9501 20.53C20.3236 20.5303 20.4789 20.4294 21.147 19.7523C21.6502 19.2424 21.7719 19.0946 21.8851 18.8556C22.0129 18.5856 22.0206 18.5438 22.0205 18.1183L22.0204 17.6673L21.7259 16.9703L21.4315 16.2733L21.8993 15.7991C22.6783 15.0092 22.6895 14.8084 21.992 14.1358C21.6687 13.8241 21.5751 13.7565 21.4337 13.7326C21.1837 13.6904 21.0358 13.7384 20.7838 13.9436C20.6596 14.0447 20.5522 14.1214 20.5451 14.1139C20.5166 14.0841 20.1961 13.2884 20.1961 13.2474C20.1961 13.2232 20.3603 13.036 20.5609 12.8315C20.9605 12.4239 21.0417 12.2586 20.9785 11.9817C20.9337 11.7854 20.84 11.6587 20.4904 11.3218C20.0598 10.9068 19.833 10.839 19.4884 11.0222L19.3015 11.1216L19.2194 10.9299C19.1205 10.6989 18.6427 9.54348 18.5959 9.42192C18.567 9.34709 18.6311 9.27645 19.075 8.89342C19.3569 8.65025 19.604 8.40778 19.6243 8.35456C19.7136 8.11954 19.4738 7.88724 19.2435 7.98568ZM19.7569 13.817C21.3463 17.6575 21.4293 17.8707 21.4312 18.1176C21.4343 18.5293 21.3392 18.6897 20.7221 19.3129C20.1329 19.9078 20.0213 19.9818 19.843 19.8953C19.722 19.8366 14.524 12.9124 14.5477 12.8415C14.5609 12.8016 18.0279 9.78116 18.0641 9.77796C18.0754 9.77698 18.8371 11.5945 19.7569 13.817ZM20.1342 11.8274L20.4138 12.1171L20.1741 12.3594C20.0422 12.4926 19.9255 12.5929 19.9147 12.5821C19.8826 12.5501 19.5811 11.816 19.5811 11.77C19.5811 11.7107 19.7494 11.5378 19.807 11.5378C19.8332 11.5378 19.9805 11.6682 20.1342 11.8274ZM4.68408 14.5168C5.41511 14.8473 6.02216 15.1323 6.03302 15.1498C6.04389 15.1674 5.92605 15.3813 5.77115 15.6251C5.61626 15.8689 5.40141 16.2217 5.29375 16.409C5.16841 16.6272 5.07858 16.7423 5.04393 16.729C4.94787 16.6922 2.156 14.5687 2.156 14.5325C2.156 14.463 2.7291 13.9688 2.86121 13.9244C3.12422 13.8361 3.3191 13.8994 4.68408 14.5168ZM21.5993 14.6015C21.7521 14.7531 21.8771 14.8965 21.8771 14.9201C21.8771 14.9438 21.7208 15.1186 21.5299 15.3086L21.1826 15.654L21.1031 15.4717C21.0594 15.3714 20.9771 15.1786 20.9201 15.0433L20.8166 14.7973L21.0483 14.5616C21.1757 14.4319 21.2894 14.3258 21.3008 14.3258C21.3122 14.3258 21.4466 14.4499 21.5993 14.6015ZM9.33255 19.2048C9.94711 20.5635 9.97441 20.654 9.86753 20.9778C9.8428 21.0527 9.69573 21.2399 9.54067 21.3938L9.2588 21.6735L8.37987 20.5109C7.89648 19.8715 7.39718 19.2102 7.27037 19.0414L7.03982 18.7345L7.1502 18.6682C7.21088 18.6317 7.48193 18.4704 7.75253 18.3097C8.02313 18.1491 8.33678 17.9548 8.44953 17.878C8.6533 17.7392 8.65482 17.7388 8.70144 17.8258C8.72723 17.874 9.01124 18.4945 9.33255 19.2048Z" fill="#11B0A1"/>
</svg>
