<svg width="24" height="24" viewBox="0 0 24 24" fill="none" xmlns="http://www.w3.org/2000/svg">
<path fill-rule="evenodd" clip-rule="evenodd" d="M7.5032 1.53146C7.2852 1.59528 6.98357 1.82661 6.8631 2.02238C6.73772 2.22619 6.66852 2.55526 6.66815 2.94942L6.66791 3.20171L5.96038 3.21656C5.28845 3.23067 5.24047 3.23715 5.00676 3.34568C4.68273 3.49609 4.36625 3.81154 4.22138 4.12839C4.11474 4.36169 4.10588 4.42276 4.09115 5.02295L4.07536 5.66707L2.97511 5.67921C1.93719 5.69061 1.86829 5.69611 1.75914 5.77625C1.49643 5.96911 1.5 5.9365 1.5 8.15227C1.5 10.3682 1.49643 10.3355 1.75922 10.5283C1.86271 10.6042 1.93338 10.6132 2.42274 10.6132C2.9121 10.6132 2.98278 10.6042 3.08626 10.5283C3.34819 10.3361 3.34548 10.3604 3.34552 8.22405L3.3456 6.28604H3.71475H4.08389V7.6004V8.9148L4.18459 9.01546C4.31289 9.1438 4.47014 9.1438 4.59844 9.01546L4.69913 8.9148L4.69938 6.76983C4.6995 5.32807 4.71447 4.57112 4.74499 4.46083C4.8066 4.23844 5.11762 3.93012 5.34116 3.86991C5.46404 3.83685 7.34283 3.82709 12.095 3.83484L18.6786 3.84559L18.8553 3.96978C18.9525 4.03807 19.0879 4.17347 19.1562 4.27068L19.2804 4.44737L19.2911 10.2886L19.302 16.1299H18.2132C17.0485 16.1299 16.9498 16.1443 16.7714 16.3399C16.6761 16.4446 15.9786 18.0369 15.9786 18.15C15.9786 18.2754 16.0757 18.4325 16.1896 18.4914C16.2814 18.5389 16.5845 18.5499 17.8017 18.5499H19.3009V18.822C19.3009 18.9716 19.2783 19.17 19.2507 19.2629C19.1848 19.4849 18.8823 19.7873 18.6604 19.8533C18.4348 19.9202 5.58262 19.9262 5.34214 19.8594C5.12673 19.7996 4.80204 19.4781 4.74446 19.2676C4.71981 19.1774 4.6995 18.979 4.69938 18.8267L4.69913 18.5499L6.20648 18.5497C7.62822 18.5496 7.72124 18.545 7.8449 18.4696C8.0924 18.3187 8.07693 18.2107 7.67301 17.2695C7.47666 16.8119 7.2763 16.3936 7.22778 16.3399C7.05104 16.1444 6.95162 16.1299 5.78737 16.1299H4.69913V13.1413C4.69913 10.1798 4.69836 10.1516 4.61411 10.0446C4.49623 9.89468 4.28647 9.89509 4.16822 10.0454L4.0825 10.1544L4.09345 14.752L4.1044 19.3497L4.21916 19.5958C4.36932 19.9177 4.68667 20.2373 4.99219 20.3745L5.23234 20.4822V21.0506C5.23234 21.6118 5.23398 21.6221 5.36565 21.8752C5.51294 22.1583 5.769 22.37 6.05845 22.4479C6.16234 22.4759 6.6764 22.4873 7.48019 22.4793C8.68844 22.4674 8.74607 22.4632 8.90878 22.3762C9.14393 22.2504 9.32928 22.0542 9.44232 21.8115C9.52759 21.6284 9.5383 21.5452 9.53862 21.0621L9.53903 20.5186H12H14.461V21.0688C14.461 21.6095 14.4632 21.6233 14.5943 21.8752C14.7416 22.1583 14.9976 22.37 15.2871 22.4479C15.391 22.4759 15.905 22.4873 16.7088 22.4793C17.9171 22.4674 17.9747 22.4632 18.1374 22.3762C18.3725 22.2504 18.5579 22.0542 18.6709 21.8115C18.7567 21.6274 18.7669 21.5461 18.7672 21.0439L18.7677 20.4822L19.0078 20.3745C19.3133 20.2373 19.6307 19.9177 19.7808 19.5958L19.8956 19.3497L19.9065 12.8179L19.9173 6.28604H20.2859H20.6544L20.6545 8.22405C20.6545 10.3604 20.6518 10.3361 20.9137 10.5283C21.0172 10.6042 21.0879 10.6132 21.5773 10.6132C22.0666 10.6132 22.1373 10.6042 22.2408 10.5283C22.5036 10.3355 22.5 10.3682 22.5 8.15227C22.5 5.9365 22.5036 5.96911 22.2409 5.77625C22.1317 5.69611 22.0628 5.69061 21.0249 5.67921L19.9246 5.66707L19.9097 5.02295C19.8952 4.40111 19.8903 4.36957 19.767 4.11219C19.6041 3.77233 19.3515 3.51934 19.0138 3.35794C18.7528 3.23326 18.7322 3.23022 18.0456 3.21623L17.344 3.20196L17.3199 2.77621C17.2843 2.14715 17.1197 1.8392 16.7013 1.61845L16.4913 1.50767L12.0615 1.50074C9.47156 1.49672 7.57838 1.50947 7.5032 1.53146ZM16.4151 2.16946C16.6166 2.26507 16.6877 2.43008 16.7089 2.85094L16.7269 3.20984H12H7.2731L7.29115 2.85094C7.31211 2.43418 7.38253 2.26753 7.57838 2.17102C7.70082 2.11069 8.12463 2.10416 11.9938 2.10334C15.8714 2.10248 16.2871 2.10872 16.4151 2.16946ZM6.79871 4.52395C6.6077 4.70188 6.73899 5.05556 6.99604 5.05556C7.15317 5.05556 7.28315 4.91631 7.28315 4.74794C7.28315 4.57957 7.15317 4.44032 6.99604 4.44032C6.93685 4.44032 6.84805 4.47797 6.79871 4.52395ZM8.53968 4.52534C8.46129 4.58699 8.4316 4.64815 8.4316 4.74794C8.4316 4.84773 8.46129 4.90889 8.53968 4.97053C8.64702 5.05499 8.67072 5.05556 12 5.05556C15.3293 5.05556 15.353 5.05499 15.4603 4.97053C15.6098 4.85298 15.6098 4.6429 15.4603 4.52534C15.353 4.44089 15.3293 4.44032 12 4.44032C8.67072 4.44032 8.64702 4.44089 8.53968 4.52534ZM16.8066 4.52395C16.686 4.63638 16.686 4.8595 16.8066 4.97193C16.9982 5.15043 17.2911 5.01499 17.2911 4.74794C17.2911 4.57957 17.1611 4.44032 17.004 4.44032C16.9448 4.44032 16.856 4.47797 16.8066 4.52395ZM5.72491 5.74689C5.64689 5.78876 5.52721 5.89196 5.45896 5.97629L5.33488 6.12957L5.32299 9.68394C5.31647 11.6388 5.32196 13.2986 5.33525 13.3724C5.36528 13.5392 5.57713 13.786 5.75333 13.8596C5.86272 13.9053 6.9592 13.915 12.0096 13.915C17.8956 13.915 18.1387 13.9121 18.2751 13.839C18.3531 13.7971 18.4728 13.6939 18.541 13.6095L18.6651 13.4562V9.79292V6.12961L18.541 5.97629C18.4728 5.89196 18.3531 5.78876 18.2751 5.74689C18.1387 5.67375 17.8954 5.6708 12 5.6708C6.10463 5.6708 5.86133 5.67375 5.72491 5.74689ZM2.73036 8.15227V10.0185H2.42274H2.11512V8.15227V6.28604H2.42274H2.73036V8.15227ZM18.0499 9.79292V13.2793H12H5.95013L5.93954 9.83393C5.93372 7.93899 5.93778 6.36545 5.94857 6.33719C5.96415 6.29626 7.19796 6.28789 12.009 6.29617L18.0499 6.30655V9.79292ZM21.8849 8.15227V10.0185H21.5773H21.2696V8.15227V6.28604H21.5773H21.8849V8.15227ZM8.46843 15.2386C8.29424 15.355 8.17554 15.5767 8.1999 15.7403C8.21836 15.8642 9.21554 18.1657 9.32243 18.331C9.46381 18.5498 9.46463 18.5499 12 18.5499C14.5354 18.5499 14.5362 18.5498 14.6776 18.331C14.7845 18.1657 15.7816 15.8642 15.8001 15.7403C15.8245 15.5767 15.7058 15.355 15.5316 15.2386C15.399 15.15 15.3547 15.1455 14.6171 15.1455C13.8488 15.1455 13.8411 15.1464 13.7413 15.2462C13.6206 15.3669 13.6124 15.5117 13.7189 15.6434C13.7941 15.7364 13.8244 15.7411 14.4708 15.7608L15.1444 15.7813L14.671 16.8579L14.1975 17.9346H12.0005H9.80359L9.32833 16.8579L8.85308 15.7813L10.7583 15.7608L12.6636 15.7403L12.7419 15.6434C12.8485 15.5118 12.8404 15.367 12.7196 15.2462L12.619 15.1455H10.6134H8.6078L8.46843 15.2386ZM10.3854 16.6251C10.307 16.6867 10.2773 16.7479 10.2773 16.8477C10.2773 16.9475 10.307 17.0086 10.3854 17.0703C10.4903 17.1528 10.538 17.1553 12 17.1553C13.462 17.1553 13.5097 17.1528 13.6146 17.0703C13.693 17.0086 13.7227 16.9475 13.7227 16.8477C13.7227 16.7479 13.693 16.6867 13.6146 16.6251C13.5097 16.5426 13.462 16.5401 12 16.5401C10.538 16.5401 10.4903 16.5426 10.3854 16.6251ZM6.97508 17.2066C7.08311 17.4604 7.19689 17.728 7.2279 17.8013L7.28426 17.9346H5.99167H4.69913V17.3399V16.7451H5.73885H6.77861L6.97508 17.2066ZM19.3009 17.3399V17.9346H18.0083H16.7157L16.7721 17.8013C16.8031 17.728 16.9169 17.4604 17.0249 17.2066L17.2214 16.7451H18.2611H19.3009V17.3399ZM8.92379 21.0319V21.5452L8.78339 21.6985L8.643 21.8517H7.38569H6.12838L5.98798 21.6985L5.84759 21.5452V21.0319V20.5186H7.38569H8.92379V21.0319ZM18.1524 21.0319V21.5452L18.012 21.6985L17.8716 21.8517H16.6143H15.357L15.2166 21.6985L15.0762 21.5452V21.0319V20.5186H16.6143H18.1524V21.0319Z" fill="#11B0A1"/>
</svg>
