<svg width="24" height="24" viewBox="0 0 24 24" fill="none" xmlns="http://www.w3.org/2000/svg">
<path fill-rule="evenodd" clip-rule="evenodd" d="M10.2213 1.56773C10.0668 1.64386 9.96704 1.80809 9.96704 1.98623V2.1083L8.41862 2.12167L6.8702 2.13505L6.62409 2.2389C6.26683 2.38968 5.34824 3.04026 5.16399 3.27304C5.0792 3.38014 4.96755 3.57395 4.91587 3.70373C4.82309 3.93662 4.82169 3.96591 4.8073 5.98394L4.79269 8.02822L4.65598 8.2073C4.57735 8.3103 4.50024 8.47523 4.47444 8.59537C4.41513 8.872 4.41324 11.8281 4.47226 11.9834C4.55791 12.2086 4.75155 12.2655 4.93683 12.1197L5.04491 12.0347V10.3997C5.04491 9.50035 5.06181 8.72011 5.08248 8.66576C5.10316 8.61141 5.17235 8.54595 5.2363 8.52027C5.45152 8.4338 11.732 6.83141 11.8556 6.83141C11.9789 6.83141 18.2551 8.43368 18.4714 8.52035C18.5353 8.54599 18.6045 8.61141 18.6252 8.66576C18.6465 8.72175 18.6628 9.86622 18.6628 11.305V13.8454H11.8538H5.04491V13.5378C5.04491 13.2848 5.03031 13.2156 4.96288 13.1481C4.87448 13.0597 4.71595 13.0417 4.59532 13.1063C4.44655 13.1859 4.42965 13.3628 4.4294 14.8462L4.42911 16.286L4.31102 16.3532C4.24117 16.3929 4.17333 16.4798 4.14486 16.5661C4.1006 16.7002 4.11611 16.7683 4.34011 17.4218C4.47395 17.8123 4.6132 18.2026 4.64954 18.2892C4.76111 18.555 4.95057 18.755 5.21702 18.8881C5.45476 19.0069 5.49418 19.0137 5.95386 19.0137C6.25731 19.0137 6.43951 19.0294 6.43951 19.0556C6.43951 19.0786 6.36548 19.2448 6.27499 19.4247L6.11047 19.752H5.68216C5.4466 19.752 5.20775 19.773 5.15144 19.7987C5.01218 19.8621 4.95759 20.0304 5.02457 20.1897C5.0902 20.3458 5.14766 20.3672 5.49947 20.3672C5.65554 20.3672 5.78323 20.3769 5.78323 20.3887C5.78323 20.4004 5.70919 20.5573 5.61871 20.7373L5.45419 21.0645L4.99319 21.0659C4.67846 21.0668 4.50975 21.0842 4.46152 21.1209C4.28547 21.2545 4.30463 21.5463 4.49515 21.6331C4.55147 21.6588 4.71866 21.6798 4.86665 21.6798C5.1064 21.6798 5.13265 21.6876 5.10734 21.7516C4.99811 22.0278 5.07166 22.2786 5.30328 22.4198C5.41785 22.4897 5.5119 22.4999 6.04164 22.5C6.84432 22.5002 6.91442 22.4648 7.11713 21.9567L7.22759 21.6798H11.8538H16.4801L16.5906 21.9567C16.7933 22.4648 16.8634 22.5002 17.6661 22.5C18.1958 22.4999 18.2899 22.4897 18.4044 22.4198C18.636 22.2786 18.7096 22.0278 18.6004 21.7516C18.575 21.6876 18.6013 21.6798 18.841 21.6798C18.989 21.6798 19.1562 21.6588 19.2125 21.6331C19.4031 21.5463 19.4222 21.2545 19.2462 21.1209C19.1979 21.0842 19.0292 21.0668 18.7145 21.0659L18.2535 21.0645L18.089 20.7373C17.9985 20.5573 17.9245 20.4004 17.9245 20.3887C17.9245 20.3769 18.0522 20.3672 18.2082 20.3672C18.56 20.3672 18.6175 20.3458 18.6831 20.1897C18.7501 20.0304 18.6955 19.8621 18.5563 19.7987C18.4999 19.773 18.2611 19.752 18.0255 19.752H17.5972L17.4327 19.4247C17.3422 19.2448 17.2682 19.0786 17.2682 19.0556C17.2682 19.0294 17.4504 19.0137 17.7538 19.0137C18.2135 19.0137 18.2529 19.0069 18.4907 18.8881C18.7571 18.755 18.9466 18.555 19.0582 18.2892C19.0945 18.2026 19.2338 17.8123 19.3676 17.4218C19.5916 16.7683 19.6071 16.7002 19.5628 16.5661C19.5344 16.4798 19.4665 16.3929 19.3967 16.3532L19.2786 16.286L19.2783 12.5451C19.2781 9.99609 19.2638 8.73774 19.2333 8.59537C19.2075 8.47527 19.1303 8.31034 19.0518 8.20743L18.9151 8.02838L18.9018 7.20069L18.8884 6.37295L18.7733 6.27406C18.6323 6.15285 18.5424 6.14949 18.4017 6.26015L18.2936 6.34514V7.08375V7.82235L18.17 7.7952C18.102 7.78027 17.9313 7.7356 17.7906 7.69598L17.5348 7.62387L17.5143 6.17143C17.4951 4.81334 17.4884 4.70997 17.4117 4.58007C17.3666 4.50365 17.2654 4.40677 17.1868 4.36473C17.0524 4.2929 16.9112 4.28831 14.8283 4.28839C12.3585 4.28843 12.4281 4.28084 12.2341 4.57125C12.1457 4.70349 12.141 4.74906 12.141 5.46338V6.21614H11.8538H11.5667V5.46338C11.5667 4.74906 11.562 4.70349 11.4736 4.57125C11.2796 4.28084 11.3492 4.28843 8.87941 4.28839C6.79653 4.28831 6.65527 4.2929 6.52089 4.36473C6.4423 4.40677 6.34107 4.50365 6.29595 4.58007C6.21925 4.70997 6.2126 4.81334 6.19341 6.17143L6.1729 7.62387L5.91707 7.69598C5.77638 7.7356 5.60448 7.78051 5.53507 7.79577L5.40886 7.8235L5.42174 5.92258L5.43458 4.0217L5.5507 3.81226C5.61576 3.69491 5.75099 3.53949 5.85833 3.45877C6.33599 3.09949 6.80166 2.81335 6.97274 2.77406C7.08009 2.74937 7.74507 2.73124 8.56218 2.73062L9.96704 2.72964V2.9983C9.96704 3.32632 10.0453 3.49445 10.235 3.57374C10.4395 3.65914 13.2682 3.65914 13.4727 3.57374C13.6624 3.49445 13.7407 3.32632 13.7407 2.9983V2.72964L15.1455 2.73062C15.9626 2.73124 16.6276 2.74937 16.735 2.77406C16.906 2.81335 17.3717 3.09949 17.8494 3.45877C17.9575 3.54011 18.0895 3.69216 18.1526 3.80799C18.2549 3.9961 18.2659 4.06078 18.2849 4.58737C18.3024 5.0745 18.3171 5.17314 18.3816 5.23766C18.4865 5.34251 18.7111 5.33701 18.8102 5.22712C18.8801 5.14964 18.8878 5.07696 18.8835 4.54008C18.8778 3.8511 18.8146 3.61521 18.5437 3.27304C18.3595 3.04026 17.4409 2.38968 17.0836 2.2389L16.8375 2.13505L15.2891 2.12167L13.7407 2.1083V1.98623C13.7407 1.80514 13.6393 1.64177 13.4799 1.56617C13.3571 1.50784 13.1439 1.49923 11.8477 1.50005C10.5546 1.50087 10.3387 1.50985 10.2213 1.56773ZM13.1254 2.56557V3.01676H11.8538H10.5823V2.56557V2.11437H11.8538H13.1254V2.56557ZM10.9512 5.65215L10.951 6.40072L8.91058 6.92431C7.78838 7.21226 6.85634 7.44762 6.83944 7.44729C6.82254 7.44696 6.80867 6.87448 6.80867 6.17512V4.90358H8.88007H10.9515L10.9512 5.65215ZM16.899 6.17512C16.899 6.87448 16.8852 7.44696 16.8683 7.44729C16.8513 7.44762 15.9193 7.21226 14.7971 6.92431L12.7567 6.40072L12.7565 5.65215L12.7562 4.90358H14.8276H16.899V6.17512ZM18.6628 15.3631V16.2655H18.2526H17.8424V15.9864C17.8424 15.6247 17.7097 15.3411 17.4616 15.1728L17.2887 15.0555L16.4516 15.0421C15.4917 15.0268 15.3618 15.0541 15.1201 15.3216C14.9531 15.5064 14.8897 15.7009 14.8894 16.0296L14.8892 16.2655H11.8538H8.81854L8.81829 16.0296C8.81801 15.7009 8.75463 15.5064 8.58761 15.3216C8.34593 15.0541 8.21595 15.0268 7.25609 15.0421L6.419 15.0555L6.24612 15.1728C5.99804 15.3411 5.86527 15.6247 5.86527 15.9864V16.2655H5.45509H5.04491V15.3631V14.4607H11.8538H18.6628V15.3631ZM8.13941 15.7414C8.17764 15.7959 8.20327 15.9194 8.20327 16.049V16.2655H7.3419H6.48053V16.0329C6.48053 15.6528 6.48627 15.6502 7.34592 15.6502C8.05344 15.6502 8.07751 15.653 8.13941 15.7414ZM17.1521 15.7181C17.2085 15.7691 17.2272 15.8455 17.2272 16.0257V16.2655H16.3658H15.5044V16.049C15.5044 15.9194 15.5301 15.7959 15.5683 15.7414C15.6301 15.653 15.6545 15.6502 16.3546 15.6502C16.9694 15.6502 17.0883 15.6603 17.1521 15.7181ZM18.7068 17.4506C18.4693 18.1256 18.4557 18.1532 18.2914 18.2914L18.1643 18.3984H11.8538H5.5434L5.41629 18.2914C5.25201 18.1532 5.23839 18.1256 5.0009 17.4506L4.80049 16.8807H11.8538H18.9072L18.7068 17.4506ZM6.87574 17.2939C6.77902 17.37 6.76766 17.4066 6.76766 17.6426C6.76766 17.9555 6.84846 18.0703 7.06893 18.0703C7.30039 18.0703 7.42517 17.8365 7.36495 17.5157C7.31114 17.2288 7.08739 17.1274 6.87574 17.2939ZM9.24738 17.3096C9.11206 17.4449 9.10357 17.7993 9.23171 17.9622C9.34152 18.1018 9.55706 18.1106 9.67831 17.9805C9.80748 17.8418 9.79743 17.4457 9.66125 17.3096C9.60587 17.2542 9.51276 17.2089 9.45431 17.2089C9.39586 17.2089 9.30275 17.2542 9.24738 17.3096ZM11.6617 17.2877C11.5063 17.4324 11.4937 17.8335 11.6392 17.9985C11.678 18.0424 11.7611 18.0703 11.8538 18.0703C12.028 18.0703 12.1186 17.9892 12.1594 17.7968C12.2233 17.4958 12.0743 17.2089 11.8538 17.2089C11.7947 17.2089 11.7082 17.2444 11.6617 17.2877ZM14.0464 17.3096C13.9103 17.4457 13.9002 17.8418 14.0294 17.9805C14.1506 18.1106 14.3662 18.1018 14.476 17.9622C14.6041 17.7993 14.5956 17.4449 14.4603 17.3096C14.4049 17.2542 14.3118 17.2089 14.2534 17.2089C14.1949 17.2089 14.1018 17.2542 14.0464 17.3096ZM16.4501 17.2886C16.2984 17.4403 16.2895 17.836 16.4342 17.9958C16.5255 18.0968 16.7536 18.0926 16.858 17.9882C16.923 17.9232 16.94 17.8515 16.94 17.6426C16.94 17.4066 16.9287 17.37 16.832 17.2939C16.6965 17.1873 16.5534 17.1853 16.4501 17.2886ZM7.56972 19.0887C7.55659 19.13 7.30868 19.7714 7.01877 20.5141L6.49169 21.8644L6.11695 21.8762C5.91084 21.8827 5.74221 21.8777 5.74221 21.8651C5.74221 21.8345 6.01076 21.2989 6.65244 20.0494L7.18435 19.0137H7.38895C7.56857 19.0137 7.59063 19.0228 7.56972 19.0887ZM15.572 19.3418C15.6445 19.511 15.705 19.6725 15.7066 19.7007C15.7089 19.7414 14.9126 19.752 11.8538 19.752C9.73323 19.752 7.99819 19.7367 7.99819 19.718C7.99819 19.6802 8.19027 19.1978 8.25016 19.0852C8.28629 19.0173 8.49019 19.0138 11.8643 19.0237L15.4403 19.0342L15.572 19.3418ZM17.2554 20.4288C17.6449 21.1958 17.964 21.8379 17.9645 21.8557C17.965 21.8735 17.7969 21.8827 17.5907 21.8762L17.216 21.8644L16.6889 20.5141C16.399 19.7714 16.1508 19.129 16.1373 19.0865C16.115 19.0164 16.1331 19.0103 16.33 19.0217L16.5473 19.0342L17.2554 20.4288ZM16.1039 20.7056L16.2299 21.044L14.0419 21.0547C12.8385 21.0605 10.8692 21.0605 9.6658 21.0547L7.47779 21.044L7.60376 20.7056L7.72973 20.3672H11.8538H15.978L16.1039 20.7056Z" fill="#11B0A1"/>
</svg>
