<svg width="19" height="16" viewBox="0 0 19 16" fill="none" xmlns="http://www.w3.org/2000/svg">
<path fill-rule="evenodd" clip-rule="evenodd" d="M13.0186 13.7723C13.0186 12.787 13.8173 11.9883 14.8025 11.9883C15.7878 11.9883 16.5865 12.787 16.5865 13.7723C16.5865 14.7575 15.7878 15.5562 14.8025 15.5562C13.8173 15.5562 13.0186 14.7575 13.0186 13.7723ZM13.4645 13.7544C13.4645 14.4934 14.0636 15.0924 14.8025 15.0924C15.5415 15.0924 16.1405 14.4934 16.1405 13.7544C16.1405 13.0155 15.5415 12.4164 14.8025 12.4164C14.0636 12.4164 13.4645 13.0155 13.4645 13.7544Z" fill="black"/>
<path fill-rule="evenodd" clip-rule="evenodd" d="M2.81414 0.0722656C3.32998 0.0726349 3.77822 0.426803 3.8979 0.928572L4.41525 3.08941H17.8396C17.9093 3.08736 17.976 3.11804 18.0198 3.17232C18.0635 3.2266 18.0794 3.29824 18.0626 3.36592L16.7826 8.59742C16.5611 9.49358 15.7568 10.123 14.8336 10.1227H7.22501C6.29711 10.1226 5.4903 9.48633 5.27379 8.58404L3.46529 1.03115C3.39305 0.730119 3.12371 0.517969 2.81414 0.518259H0.428075C0.304917 0.518259 0.205078 0.41842 0.205078 0.295262C0.205078 0.172105 0.304917 0.0722656 0.428075 0.0722656H2.81414ZM16.35 8.49038L17.572 3.5354H4.52229L5.7064 8.47477C5.87283 9.17898 6.50141 9.67648 7.22501 9.67673H14.8336C15.5518 9.6772 16.1777 9.18758 16.35 8.49038Z" fill="black"/>
<path fill-rule="evenodd" clip-rule="evenodd" d="M6.72782 15.5484C5.74256 15.5484 4.94385 14.7497 4.94385 13.7644C4.94385 12.7792 5.74256 11.9805 6.72782 11.9805C7.71308 11.9805 8.51179 12.7792 8.51179 13.7644C8.51179 14.7497 7.71308 15.5484 6.72782 15.5484ZM6.70998 15.1024C7.44893 15.1024 8.04796 14.5034 8.04796 13.7644C8.04796 13.0255 7.44893 12.4265 6.70998 12.4265C5.97103 12.4265 5.372 13.0255 5.372 13.7644C5.372 14.5034 5.97103 15.1024 6.70998 15.1024Z" fill="black"/>
</svg>
