<svg width="160" height="32" viewBox="0 0 160 32" fill="none" xmlns="http://www.w3.org/2000/svg">
<path d="M39.8697 29.5397C39.8574 29.5172 39.8466 29.494 39.8374 29.4701L27.4603 2.91993C27.4613 2.9125 27.4613 2.90498 27.4603 2.89756V2.8752C27.0539 2.01494 26.4115 1.28792 25.6079 0.778867C24.8043 0.269817 23.8726 -0.00029601 22.9214 2.43432e-07H12.3853V0.335475C12.5305 0.342507 12.6715 0.387507 12.794 0.465992C12.9164 0.544476 13.0162 0.653706 13.0834 0.782788L13.1007 0.817574C13.1064 0.82771 13.1106 0.838586 13.1132 0.849881L25.5002 27.4175C25.8927 28.254 26.5084 28.9659 27.2794 29.475C28.0504 29.984 28.9469 30.2704 29.8702 30.3026H40.5529V29.9696C40.412 29.9614 40.2755 29.9176 40.1561 29.8425C40.0366 29.7673 39.9381 29.6632 39.8697 29.5397Z" fill="#FF5E00"/>
<path d="M19.1336 17.7165L16.4332 11.9238H9.81483C7.65292 11.9717 5.56428 12.7166 3.85986 14.0478C2.15545 15.379 0.926425 17.2252 0.355779 19.3116C-0.214866 21.398 -0.0966131 23.6129 0.692931 25.6266C1.48248 27.6403 2.90109 29.3451 4.73755 30.4871C6.574 31.6292 8.73009 32.1474 10.8848 31.9646C13.0395 31.7819 15.0776 30.9079 16.6956 29.4729C18.3136 28.0379 19.425 26.1185 19.8643 24.0006C20.3036 21.8826 20.0473 19.6794 19.1336 17.719V17.7165Z" fill="#FF5E00"/>
<path d="M10.1499 6.37707C10.7489 6.09704 11.2515 5.64567 11.5941 5.08001C11.9367 4.51435 12.104 3.85979 12.0748 3.19906C12.0456 2.53833 11.8212 1.90109 11.43 1.36788C11.0388 0.834678 10.4984 0.42944 9.87699 0.203391C9.25562 -0.0226583 8.58119 -0.0593761 7.93896 0.0978855C7.29673 0.255147 6.71552 0.599328 6.2688 1.08692C5.82207 1.57451 5.52989 2.18362 5.42917 2.83728C5.32844 3.49094 5.42371 4.15979 5.70292 4.75931C5.88851 5.15779 6.1508 5.51577 6.4748 5.81278C6.79881 6.10979 7.17816 6.34 7.59117 6.49025C8.00419 6.6405 8.44276 6.70785 8.88181 6.68843C9.32086 6.66901 9.75178 6.5632 10.1499 6.37707Z" fill="#FF5E00"/>
<path d="M42.2437 15.1293C42.2437 12.0304 44.3628 9.82617 47.1751 9.82617C48.7601 9.82617 49.8358 10.4325 50.5066 11.275L50.5613 10.0324H53.232V20.2634H50.5613L50.5066 19.0208C49.8358 19.8732 48.7676 20.4696 47.1751 20.4696C44.3628 20.4771 42.2437 18.2281 42.2437 15.1293ZM47.7092 12.264C46.0696 12.264 44.9615 13.5065 44.9615 15.1293C44.9615 16.752 46.0696 18.0492 47.7092 18.0492C49.3489 18.0492 50.4992 16.7694 50.4992 15.1293C50.4992 13.4891 49.3365 12.264 47.7068 12.264H47.7092Z" fill="#333333"/>
<path d="M130.276 15.1293C130.276 12.0304 132.396 9.82617 135.208 9.82617C136.793 9.82617 137.869 10.4325 138.539 11.275L138.594 10.0324H141.265V20.2634H138.592L138.537 19.0208C137.866 19.8732 136.798 20.4696 135.205 20.4696C132.396 20.4771 130.276 18.2281 130.276 15.1293ZM135.742 12.264C134.102 12.264 132.994 13.5065 132.994 15.1293C132.994 16.752 134.102 18.0492 135.742 18.0492C137.382 18.0492 138.532 16.7694 138.532 15.1293C138.532 13.4891 137.369 12.264 135.739 12.264H135.742Z" fill="#333333"/>
<path d="M62.4083 10.0391H65.4441L60.6195 21.6616C59.7997 23.6223 58.5426 24.7406 56.3489 24.7406C55.6732 24.7427 55.006 24.5896 54.3987 24.2933L54.7391 22.099C55.148 22.2689 55.5856 22.3592 56.0284 22.3649C57.1688 22.3649 57.9786 21.5672 58.2966 20.2774L54.0732 10.0391H57.1042L59.7773 17.4942L62.4083 10.0391Z" fill="#333333"/>
<path d="M127.24 10.0391H130.276L125.451 21.6616C124.631 23.6223 123.374 24.7406 121.18 24.7406C120.505 24.7423 119.838 24.5893 119.23 24.2933L119.573 22.099C119.981 22.269 120.418 22.3593 120.86 22.3649C122 22.3649 122.81 21.5672 123.128 20.2774L118.905 10.0391H121.931L124.604 17.4942L127.24 10.0391Z" fill="#333333"/>
<path d="M73.1712 10.0391H75.904V16.0554C75.904 18.6448 73.9538 20.4762 71.0694 20.4762C68.1851 20.4762 66.2896 18.6647 66.2896 16.12V10.0391H69.0223V15.7795C69.0223 17.0792 69.8645 17.9614 71.067 17.9614C72.334 17.9614 73.1762 17.0792 73.1762 15.7795L73.1712 10.0391Z" fill="#333333"/>
<path d="M80.2657 11.4369C80.5054 10.9362 80.8866 10.5167 81.3622 10.2304C81.8378 9.94421 82.3868 9.80381 82.9414 9.82662C83.3959 9.83108 83.8465 9.90999 84.2755 10.0602L84.0618 12.503C83.6559 12.3485 83.2266 12.2644 82.7923 12.2545C81.5874 12.2545 80.308 12.9056 80.308 15.0179V20.2638H77.5752V10.0254H80.2086L80.2657 11.4369Z" fill="#333333"/>
<path d="M93.3238 10.0391H96.2256L92.3301 20.2824H89.0036L85.0981 10.0391H87.9999L90.6681 17.6035L93.3238 10.0391Z" fill="#333333"/>
<path d="M106.022 19.5178C104.838 20.158 103.512 20.4879 102.166 20.4771C98.5465 20.4771 96.2261 18.335 96.2261 15.1516C96.2261 12.0205 98.4396 9.82617 101.476 9.82617C104.616 9.82617 107.001 12.1895 106.33 15.9717H98.9415C99.2173 17.3981 100.494 18.079 102.171 18.079C103.367 18.0788 104.548 17.8132 105.629 17.3012L106.022 19.5178ZM103.88 14.1402C103.806 12.9996 102.944 12.1248 101.538 12.1248C100.079 12.1248 99.1005 12.9772 98.9837 14.1402H103.88Z" fill="#333333"/>
<path d="M107.289 15.2481C107.289 12.2015 109.304 10.0296 112.141 10.0296C113.746 10.0296 114.779 10.6135 115.448 11.4485V5.56641H118.076V20.2679H115.438L115.386 19.2043C114.717 19.9747 113.602 20.4767 112.131 20.4767C109.294 20.4767 107.289 18.2749 107.289 15.2481ZM112.693 12.4425C111.098 12.4425 109.982 13.6204 109.982 15.2382C109.982 16.856 111.098 18.0761 112.693 18.0761C114.287 18.0761 115.425 16.8336 115.425 15.2382C115.425 13.6428 114.258 12.4425 112.683 12.4425H112.693Z" fill="#333333"/>
<path d="M152.166 11.6411C152.563 11.0693 153.095 10.6046 153.715 10.2881C154.335 9.97161 155.023 9.81322 155.719 9.827C158.067 9.827 159.741 11.3528 159.741 13.8478V20.2841H157.008V14.5536C157.008 13.1346 156.134 12.3667 154.961 12.3667C153.789 12.3667 152.71 13.1122 152.71 14.4889V20.2841H149.978V14.5536C149.978 13.1346 149.093 12.3667 147.94 12.3667C146.788 12.3667 145.704 13.1346 145.704 14.5536V20.2841H142.972V10.0407H145.548L145.603 11.2236C146.124 10.5079 147.235 9.827 148.738 9.827C150.288 9.827 151.568 10.4781 152.166 11.6411Z" fill="#333333"/>
</svg>
