<svg width="320" height="484" viewBox="0 0 320 484" fill="none" xmlns="http://www.w3.org/2000/svg">
<mask id="mask0_728_1044" style="mask-type:alpha" maskUnits="userSpaceOnUse" x="0" y="0" width="320" height="484">
<rect width="320" height="484" rx="7" fill="#C4C4C4"/>
</mask>
<g mask="url(#mask0_728_1044)">
<rect width="320" height="484" fill="url(#paint0_linear_728_1044)"/>
<rect x="2" y="2" width="316" height="480" rx="5" fill="#FFFBF5"/>
<path opacity="0.2" d="M377.161 245.119C380.955 304.924 352.622 350.996 307.445 382.14C262.252 413.294 200.208 429.5 136.677 429.5C85.6413 429.5 50.594 418.11 21.5725 394.603C-7.47619 371.075 -30.5325 335.375 -57.5086 286.641C-73.0373 258.588 -81.6887 235.547 -83.9176 217.077C-86.1444 198.625 -81.9586 184.78 -71.858 175.019C-61.734 165.234 -45.5886 159.474 -23.7304 157.392C-1.88134 155.311 25.6068 156.911 58.3382 161.782C88.822 166.318 123.556 166.318 158.596 165.647C164.777 165.528 170.968 165.389 177.146 165.25C206.011 164.601 234.618 163.958 260.807 165.473C292.61 167.313 320.765 172.335 341.434 184.34C362.062 196.322 375.267 215.278 377.161 245.119Z" stroke="url(#paint1_linear_728_1044)"/>
<path opacity="0.2" d="M326.578 69.4095C368.143 133.305 389.735 222.912 384.808 296.528C382.345 333.335 373.255 366.095 356.767 389.638C340.294 413.16 316.427 427.5 284.315 427.5C232.557 427.5 160.806 399.501 95.1124 359.089C29.4235 318.68 -30.0849 265.937 -57.4105 216.565C-73.1737 188.083 -80.8451 165.247 -81.4598 147.329C-82.0732 129.448 -75.6611 116.467 -63.2051 107.609C-50.713 98.7248 -32.0914 93.9509 -8.23278 92.6484C15.615 91.3465 44.6337 93.5156 77.8658 98.4616C131.487 106.442 169.874 78.1132 202.753 53.8497C207.921 50.0361 212.953 46.323 217.886 42.867C236.094 30.1116 252.897 20.896 270.288 22.7336C287.654 24.5684 305.789 37.4529 326.578 69.4095Z" stroke="url(#paint2_linear_728_1044)"/>
</g>
<defs>
<linearGradient id="paint0_linear_728_1044" x1="-12.2667" y1="-13.31" x2="448.245" y2="287.984" gradientUnits="userSpaceOnUse">
<stop stop-color="#E2B36C"/>
<stop offset="1" stop-color="#AD4F6A"/>
</linearGradient>
<linearGradient id="paint1_linear_728_1044" x1="-102.748" y1="148.465" x2="147.909" y2="567.602" gradientUnits="userSpaceOnUse">
<stop stop-color="#EDC581"/>
<stop offset="1" stop-color="#BE728B"/>
</linearGradient>
<linearGradient id="paint2_linear_728_1044" x1="-99.94" y1="10.835" x2="318.021" y2="487.595" gradientUnits="userSpaceOnUse">
<stop stop-color="#EDC581"/>
<stop offset="1" stop-color="#BE728B"/>
</linearGradient>
</defs>
</svg>
