<svg width="16" height="16" viewBox="0 0 16 16" fill="none" xmlns="http://www.w3.org/2000/svg">
<path fill-rule="evenodd" clip-rule="evenodd" d="M3.40808 14.2774V14.2801L3.47208 14.3254L3.65608 14.4587V14.4508C3.87475 14.5974 4.09608 14.7388 4.32008 14.8588C5.44542 15.4641 6.71742 15.7814 8.00008 15.7814C9.28275 15.7814 10.5548 15.4614 11.6801 14.8588C11.9041 14.7388 12.1254 14.6001 12.3441 14.4508V14.4587L12.5281 14.3254L12.5921 14.2801V14.2774C14.5894 12.8134 15.7814 10.4748 15.7814 8.00008C15.7814 3.70942 12.2908 0.21875 8.00008 0.21875C3.70942 0.21875 0.21875 3.70942 0.21875 8.00008C0.21875 10.4748 1.41075 12.8134 3.40808 14.2774ZM12.0828 14.3041C12.0601 14.3188 12.0381 14.3334 12.0161 14.3481C11.9941 14.3628 11.9721 14.3774 11.9494 14.3921C11.8187 14.4748 11.6854 14.5521 11.5521 14.6241C10.4668 15.2081 9.23742 15.5174 8.00008 15.5174C6.76275 15.5174 5.53342 15.2081 4.44808 14.6241C4.31475 14.5521 4.18408 14.4748 4.05075 14.3921C4.0229 14.3757 3.99605 14.3573 3.96898 14.3387C3.95198 14.3271 3.9349 14.3154 3.91742 14.3041C3.84279 14.2561 3.76815 14.2055 3.69352 14.1548L3.69351 14.1548L3.69342 14.1548C3.69742 14.1267 3.70208 14.0987 3.70675 14.0707L3.70675 14.0707C3.71142 14.0427 3.71608 14.0147 3.72008 13.9868C3.73075 13.9228 3.74142 13.8588 3.75475 13.7948C3.77075 13.7281 3.78942 13.6614 3.80808 13.5948L3.81628 13.5632C3.82962 13.5117 3.84327 13.459 3.85875 13.4081C3.8763 13.3532 3.89566 13.302 3.91534 13.2499L3.91535 13.2499L3.92808 13.2161L3.94151 13.1789L3.94152 13.1789C3.95848 13.1318 3.97578 13.0838 3.99475 13.0374C4.02142 12.9761 4.05075 12.9148 4.08008 12.8534L4.09572 12.8204C4.11727 12.7747 4.13914 12.7283 4.16275 12.6854C4.18604 12.6427 4.21073 12.6014 4.23582 12.5595L4.23582 12.5595L4.26408 12.5121C4.27475 12.4943 4.28512 12.4762 4.29549 12.4582L4.2955 12.4581C4.31624 12.422 4.33698 12.3859 4.36008 12.3521C4.39742 12.2961 4.43742 12.2428 4.47742 12.1894C4.49115 12.1708 4.50452 12.1522 4.51779 12.1337L4.51781 12.1336C4.54062 12.1018 4.56315 12.0704 4.58675 12.0401C4.61213 12.0084 4.63846 11.9785 4.66461 11.9489L4.66463 11.9488C4.68243 11.9287 4.70014 11.9086 4.71742 11.8881C4.73742 11.8654 4.75742 11.8421 4.77742 11.8188C4.79742 11.7954 4.81742 11.7721 4.83742 11.7494C4.86453 11.7207 4.89355 11.693 4.92277 11.665L4.92279 11.665L4.92285 11.6649C4.94246 11.6462 4.96215 11.6273 4.98142 11.6081C4.99648 11.5939 5.01095 11.5797 5.02532 11.5657C5.05421 11.5374 5.0827 11.5095 5.11475 11.4827C5.15204 11.4494 5.19077 11.4189 5.22988 11.3881L5.27208 11.3548C5.29608 11.3361 5.31941 11.3168 5.34275 11.2974L5.34277 11.2974C5.3661 11.2781 5.38942 11.2587 5.41342 11.2401C5.45351 11.2114 5.49497 11.1842 5.53584 11.1573L5.58408 11.1254C5.60544 11.1119 5.62632 11.0975 5.64713 11.0831L5.64715 11.0831L5.64716 11.0831C5.67571 11.0634 5.70412 11.0437 5.73342 11.0268C5.76906 11.0057 5.80569 10.9856 5.8427 10.9653C5.86661 10.9522 5.89068 10.939 5.91475 10.9254L5.95646 10.9023C5.99498 10.8808 6.03281 10.8597 6.07208 10.8401C6.12671 10.8128 6.18327 10.7893 6.23847 10.7665L6.23849 10.7665L6.26675 10.7548C6.32008 10.7308 6.37342 10.7067 6.42675 10.6854C6.49608 10.6588 6.56542 10.6374 6.63742 10.6161C6.69075 10.5974 6.74408 10.5788 6.80008 10.5628C6.87475 10.5414 6.95208 10.5254 7.02942 10.5094C7.05608 10.5041 7.08208 10.4974 7.10808 10.4908L7.10813 10.4907C7.13411 10.4841 7.1601 10.4774 7.18675 10.4721C7.27207 10.4561 7.36005 10.4454 7.44804 10.4348L7.44808 10.4348C7.46622 10.4326 7.48435 10.4296 7.50248 10.4266C7.52968 10.4222 7.55688 10.4177 7.58408 10.4161C7.71742 10.4028 7.85342 10.3974 7.99208 10.3974C8.13075 10.3974 8.26408 10.4028 8.40008 10.4161C8.42275 10.4188 8.44542 10.4221 8.46808 10.4254C8.49075 10.4288 8.51342 10.4321 8.53608 10.4348L8.53613 10.4348C8.62411 10.4454 8.7121 10.4561 8.79742 10.4721C8.84178 10.481 8.8843 10.4917 8.92805 10.5027L8.92811 10.5027L8.95475 10.5094C9.03208 10.5254 9.10942 10.5414 9.18408 10.5628C9.2239 10.5741 9.26101 10.5868 9.29926 10.6L9.34675 10.6161C9.38141 10.6281 9.41674 10.6394 9.45207 10.6507C9.48741 10.6621 9.52275 10.6734 9.55742 10.6854C9.5878 10.697 9.6166 10.7101 9.64512 10.7231L9.64519 10.7232C9.66922 10.7341 9.69304 10.745 9.71742 10.7548C9.74043 10.7649 9.76313 10.7744 9.78561 10.7838C9.82827 10.8016 9.87018 10.8191 9.91208 10.8401C9.95136 10.8597 9.98918 10.8808 10.0277 10.9023L10.0277 10.9023L10.0694 10.9254L10.0694 10.9254C10.1308 10.9574 10.1921 10.9894 10.2507 11.0268C10.2761 11.0427 10.3007 11.0594 10.3254 11.076L10.3254 11.0761C10.3501 11.0928 10.3748 11.1094 10.4001 11.1254L10.4483 11.1573C10.4892 11.1842 10.5307 11.2114 10.5707 11.2401C10.6187 11.2748 10.6667 11.3148 10.7121 11.3548L10.7543 11.3881C10.7934 11.4189 10.8321 11.4494 10.8694 11.4827C10.8921 11.5027 10.9141 11.5241 10.9361 11.5454C10.9581 11.5667 10.9801 11.5881 11.0028 11.6081C11.0507 11.6534 11.1014 11.7014 11.1467 11.7494C11.1861 11.7912 11.2209 11.833 11.2575 11.8769L11.2575 11.877L11.2668 11.8881C11.3121 11.9388 11.3574 11.9894 11.3974 12.0401C11.421 12.0704 11.4435 12.1018 11.4663 12.1336L11.4663 12.1336C11.4796 12.1521 11.493 12.1708 11.5068 12.1894C11.5468 12.2428 11.5868 12.2961 11.6241 12.3521C11.6472 12.3876 11.6679 12.4232 11.6887 12.4588C11.699 12.4765 11.7094 12.4943 11.7201 12.5121L11.7483 12.5595C11.7734 12.6014 11.7981 12.6427 11.8214 12.6854C11.8507 12.7414 11.8774 12.7974 11.9041 12.8534L11.9214 12.8894C11.9449 12.9381 11.968 12.986 11.9894 13.0374C12.0134 13.0961 12.0347 13.1548 12.0561 13.2161C12.0801 13.2801 12.1041 13.3441 12.1254 13.4081C12.1441 13.4694 12.1601 13.5308 12.1761 13.5948L12.1761 13.5948C12.1948 13.6615 12.2134 13.7281 12.2294 13.7948C12.2427 13.8587 12.2534 13.9227 12.2641 13.9867L12.2641 13.9868C12.2747 14.0427 12.2827 14.0987 12.2907 14.1546L12.2907 14.1547L12.2907 14.1548C12.2321 14.2081 12.1574 14.2561 12.0828 14.3041ZM15.5147 8.00008C15.5147 3.85608 12.1441 0.485417 8.00008 0.485417C3.85608 0.485417 0.485417 3.85608 0.485417 8.00008C0.485417 10.3414 1.58942 12.5601 3.45075 13.9787C3.45608 13.9414 3.46408 13.9068 3.47208 13.8721L3.47208 13.8721C3.47404 13.8627 3.47599 13.8533 3.47795 13.8438C3.48938 13.7886 3.50109 13.732 3.51475 13.6774C3.53075 13.6028 3.54942 13.5334 3.57075 13.4614C3.58942 13.3974 3.60808 13.3334 3.62942 13.2721C3.65342 13.2028 3.67742 13.1361 3.70408 13.0667C3.72808 13.0054 3.75208 12.9441 3.77875 12.8854C3.80808 12.8187 3.84008 12.7521 3.87208 12.6881C3.89875 12.6321 3.92808 12.5734 3.96008 12.5174C3.99474 12.4534 4.03207 12.3921 4.0694 12.3308L4.06942 12.3307C4.10142 12.2747 4.13608 12.2214 4.17075 12.1681C4.20158 12.1208 4.23398 12.0767 4.26676 12.0321C4.27651 12.0189 4.2863 12.0055 4.29608 11.9921C4.33342 11.9414 4.37075 11.8907 4.41075 11.8401C4.45608 11.7841 4.50408 11.7308 4.55208 11.6774L4.5521 11.6774C4.59476 11.6294 4.63742 11.5814 4.68008 11.5361C4.72833 11.4878 4.77658 11.442 4.82713 11.394L4.83475 11.3868C4.84621 11.376 4.85767 11.365 4.86917 11.354C4.90317 11.3215 4.93755 11.2886 4.97342 11.2587C5.00897 11.2268 5.0469 11.1971 5.08482 11.1675C5.10379 11.1527 5.12275 11.1379 5.14142 11.1227C5.16675 11.1041 5.19141 11.0848 5.21608 11.0654C5.24075 11.0461 5.26542 11.0268 5.29075 11.0081C5.34942 10.9654 5.41075 10.9254 5.47208 10.8854C5.48725 10.8756 5.50221 10.8657 5.51707 10.8559C5.55445 10.8312 5.59125 10.807 5.62942 10.7841C5.67686 10.7564 5.72576 10.7302 5.77396 10.7044C5.79079 10.6954 5.80752 10.6864 5.82408 10.6774C5.83905 10.6692 5.85402 10.6607 5.86904 10.6523C5.90756 10.6305 5.94646 10.6086 5.98675 10.5894C6.05606 10.5574 6.12537 10.5281 6.19468 10.4988L6.19475 10.4987C6.21341 10.4908 6.23208 10.4825 6.25074 10.4742C6.28808 10.4576 6.32541 10.441 6.36275 10.4268C6.43475 10.4001 6.50942 10.3761 6.58408 10.3521C6.60275 10.3459 6.62142 10.3393 6.64009 10.3328C6.67742 10.3198 6.71475 10.3067 6.75208 10.2961C6.80372 10.2823 6.85646 10.2708 6.90888 10.2593C6.93768 10.253 6.96638 10.2467 6.99475 10.2401C7.04808 10.2267 7.10142 10.2134 7.15742 10.2028C7.24808 10.1841 7.34142 10.1734 7.43475 10.1627C7.45589 10.1603 7.47702 10.1572 7.49843 10.1541C7.52294 10.1505 7.5478 10.1469 7.57342 10.1441C7.71208 10.1334 7.85608 10.1254 8.00008 10.1254C8.14408 10.1254 8.28542 10.1307 8.42675 10.1441C8.44788 10.1466 8.46901 10.1496 8.49041 10.1527C8.51492 10.1563 8.53979 10.1599 8.56542 10.1627C8.5952 10.167 8.62498 10.171 8.65467 10.175C8.71804 10.1834 8.78101 10.1919 8.84275 10.2028C8.89875 10.2134 8.95208 10.2267 9.00542 10.2401C9.08808 10.2561 9.16808 10.2748 9.24808 10.2961C9.28542 10.3067 9.32275 10.3198 9.36008 10.3328C9.37875 10.3393 9.39742 10.3459 9.41608 10.3521C9.49075 10.3761 9.56542 10.4001 9.63742 10.4268C9.67475 10.441 9.71209 10.4576 9.74942 10.4742C9.76809 10.4825 9.78675 10.4908 9.80542 10.4987C9.81831 10.5042 9.83129 10.5097 9.84432 10.5151C9.90134 10.5391 9.95914 10.5634 10.0134 10.5894C10.0694 10.6187 10.1227 10.6481 10.176 10.6774L10.1761 10.6774C10.2427 10.7121 10.3067 10.7467 10.3707 10.7841C10.4089 10.807 10.4457 10.8312 10.4831 10.8559C10.498 10.8657 10.5129 10.8756 10.5281 10.8854C10.5894 10.9254 10.6508 10.9654 10.7094 11.0081L10.7094 11.0081C10.7601 11.0454 10.8108 11.0828 10.8587 11.1227C10.8774 11.1379 10.8964 11.1527 10.9153 11.1675C10.9533 11.1971 10.9912 11.2267 11.0267 11.2587C11.0626 11.2886 11.097 11.3215 11.131 11.354C11.1425 11.365 11.154 11.376 11.1654 11.3868C11.2188 11.4348 11.2694 11.4854 11.3201 11.5361C11.3537 11.5697 11.3844 11.6048 11.4154 11.6403C11.4262 11.6526 11.4371 11.665 11.4481 11.6774C11.4961 11.7308 11.5441 11.7841 11.5894 11.8401C11.6294 11.8907 11.6667 11.9414 11.7041 11.9921C11.7468 12.0508 11.7894 12.1094 11.8294 12.1681C11.8468 12.1948 11.8634 12.2221 11.8801 12.2494C11.8968 12.2768 11.9134 12.3041 11.9307 12.3307L11.9308 12.3308C11.9681 12.3921 12.0054 12.4534 12.0401 12.5174C12.0694 12.5734 12.0988 12.6294 12.1281 12.6881C12.136 12.7045 12.1438 12.7207 12.1517 12.7369C12.1757 12.7864 12.1993 12.8351 12.2214 12.8854C12.2481 12.9467 12.2721 13.0054 12.2961 13.0667C12.3227 13.1334 12.3467 13.2027 12.3707 13.272L12.3707 13.2721C12.3921 13.3361 12.4108 13.3974 12.4294 13.4614C12.4508 13.5334 12.4694 13.6054 12.4854 13.6774C12.5014 13.7414 12.5147 13.8054 12.5281 13.8721C12.5309 13.8917 12.5352 13.9107 12.5394 13.9293C12.5432 13.9459 12.5469 13.9623 12.5494 13.9787C14.4108 12.5601 15.5147 10.3414 15.5147 8.00008Z" fill="black"/>
<path d="M3.40808 14.2801H3.33308V14.3189L3.36473 14.3413L3.40808 14.2801ZM3.40808 14.2774H3.48308V14.2394L3.45242 14.2169L3.40808 14.2774ZM3.47208 14.3254L3.51609 14.2647L3.51543 14.2642L3.47208 14.3254ZM3.65608 14.4587L3.61208 14.5195L3.73108 14.6057V14.4587H3.65608ZM3.65608 14.4508L3.69786 14.3885L3.58108 14.3101V14.4508H3.65608ZM4.32008 14.8588L4.35561 14.7927L4.3555 14.7926L4.32008 14.8588ZM11.6801 14.8588L11.7155 14.9249L11.7155 14.9249L11.6801 14.8588ZM12.3441 14.4508H12.4191V14.3087L12.3018 14.3888L12.3441 14.4508ZM12.3441 14.4587H12.2691V14.6057L12.3881 14.5195L12.3441 14.4587ZM12.5281 14.3254L12.4847 14.2642L12.4841 14.2647L12.5281 14.3254ZM12.5921 14.2801L12.6354 14.3413L12.6671 14.3189V14.2801H12.5921ZM12.5921 14.2774L12.5477 14.2169L12.5171 14.2394V14.2774H12.5921ZM12.0161 14.3481L12.0577 14.4105L12.0577 14.4105L12.0161 14.3481ZM12.0828 14.3041L12.0422 14.241L12.042 14.2411L12.0828 14.3041ZM11.9494 14.3921L11.9895 14.4555L11.9902 14.4551L11.9494 14.3921ZM11.5521 14.6241L11.5876 14.6901L11.5877 14.6901L11.5521 14.6241ZM4.44808 14.6241L4.41245 14.6901L4.41255 14.6901L4.44808 14.6241ZM4.05075 14.3921L4.09028 14.3283L4.08878 14.3274L4.05075 14.3921ZM3.96898 14.3387L4.01138 14.2769H4.01138L3.96898 14.3387ZM3.91742 14.3041L3.95816 14.2411L3.95797 14.241L3.91742 14.3041ZM3.69352 14.1548L3.73566 14.0927L3.73357 14.0914L3.69352 14.1548ZM3.69351 14.1548L3.65167 14.2171L3.65346 14.2182L3.69351 14.1548ZM3.69342 14.1548L3.61917 14.1441L3.61251 14.1908L3.65159 14.217L3.69342 14.1548ZM3.70675 14.0707L3.63291 14.0576L3.63277 14.0584L3.70675 14.0707ZM3.70675 14.0707L3.78059 14.0839L3.78073 14.0831L3.70675 14.0707ZM3.72008 13.9868L3.64608 13.9744L3.64584 13.9761L3.72008 13.9868ZM3.75475 13.7948L3.68179 13.7772L3.68133 13.7795L3.75475 13.7948ZM3.80808 13.5948L3.88032 13.615L3.88068 13.6136L3.80808 13.5948ZM3.81628 13.5632L3.88888 13.582L3.88889 13.582L3.81628 13.5632ZM3.85875 13.4081L3.78731 13.3852L3.787 13.3862L3.85875 13.4081ZM3.91534 13.2499L3.98562 13.2764L3.98693 13.2723L3.91534 13.2499ZM3.91535 13.2499L3.84505 13.2234L3.84376 13.2275L3.91535 13.2499ZM3.92808 13.2161L3.99827 13.2425L3.99862 13.2416L3.92808 13.2161ZM3.94151 13.1789L3.87128 13.1526L3.87098 13.1534L3.94151 13.1789ZM3.94152 13.1789L4.01176 13.2052L4.01209 13.2043L3.94152 13.1789ZM3.99475 13.0374L3.92595 13.0075L3.92533 13.009L3.99475 13.0374ZM4.08008 12.8534L4.14774 12.8858L4.14788 12.8855L4.08008 12.8534ZM4.09572 12.8204L4.16352 12.8524L4.16355 12.8524L4.09572 12.8204ZM4.16275 12.6854L4.22847 12.7216L4.22859 12.7213L4.16275 12.6854ZM4.23582 12.5595L4.17549 12.5143L4.17146 12.521L4.23582 12.5595ZM4.23582 12.5595L4.29616 12.6048L4.30025 12.5979L4.23582 12.5595ZM4.26408 12.5121L4.19977 12.4735L4.19965 12.4737L4.26408 12.5121ZM4.29549 12.4582L4.36065 12.4955L4.36258 12.4917L4.29549 12.4582ZM4.2955 12.4581L4.23034 12.4207L4.22842 12.4246L4.2955 12.4581ZM4.36008 12.3521L4.42199 12.3944L4.42249 12.3937L4.36008 12.3521ZM4.47742 12.1894L4.53742 12.2344L4.5378 12.2339L4.47742 12.1894ZM4.51779 12.1337L4.57873 12.1774L4.57899 12.177L4.51779 12.1337ZM4.51781 12.1336L4.45687 12.0899L4.45661 12.0903L4.51781 12.1336ZM4.58675 12.0401L4.52818 11.9932L4.52755 11.994L4.58675 12.0401ZM4.66461 11.9489L4.60987 11.8976L4.60837 11.8993L4.66461 11.9489ZM4.66463 11.9488L4.71937 12.0002L4.72088 11.9985L4.66463 11.9488ZM4.71742 11.8881L4.66116 11.8384L4.66005 11.8398L4.71742 11.8881ZM4.83742 11.7494L4.78286 11.6979L4.78118 11.6998L4.83742 11.7494ZM4.92277 11.665L4.97462 11.7192L4.97581 11.718L4.92277 11.665ZM4.92279 11.665L4.87099 11.6107L4.86975 11.612L4.92279 11.665ZM4.92285 11.6649L4.97464 11.7192L4.97469 11.7191L4.92285 11.6649ZM4.98142 11.6081L4.92999 11.5534L4.92838 11.555L4.98142 11.6081ZM5.02532 11.5657L5.0778 11.6192H5.0778L5.02532 11.5657ZM5.11475 11.4827L5.16279 11.5404L5.16476 11.5386L5.11475 11.4827ZM5.22988 11.3881L5.27626 11.4471L5.27642 11.447L5.22988 11.3881ZM5.27208 11.3548L5.22604 11.2955L5.22555 11.2959L5.27208 11.3548ZM5.34275 11.2974L5.39062 11.3552L5.39214 11.3539L5.34275 11.2974ZM5.34277 11.2974L5.2949 11.2396L5.29338 11.241L5.34277 11.2974ZM5.41342 11.2401L5.36979 11.179L5.36737 11.1809L5.41342 11.2401ZM5.53584 11.1573L5.57705 11.22L5.57718 11.2199L5.53584 11.1573ZM5.58408 11.1254L5.54403 11.062L5.54274 11.0628L5.58408 11.1254ZM5.64713 11.0831L5.68979 11.1448L5.69073 11.1441L5.64713 11.0831ZM5.64715 11.0831L5.69081 11.1442L5.69401 11.1417L5.64715 11.0831ZM5.64716 11.0831L5.60441 11.0212L5.60031 11.0245L5.64716 11.0831ZM5.73342 11.0268L5.771 11.0917L5.77157 11.0913L5.73342 11.0268ZM5.8427 10.9653L5.80665 10.8996L5.80665 10.8996L5.8427 10.9653ZM5.91475 10.9254L5.87836 10.8598L5.87785 10.8601L5.91475 10.9254ZM5.95646 10.9023L5.99285 10.9679L5.99298 10.9678L5.95646 10.9023ZM6.07208 10.8401L6.10562 10.9072L6.10563 10.9072L6.07208 10.8401ZM6.23847 10.7665L6.26716 10.8358L6.26801 10.8354L6.23847 10.7665ZM6.23849 10.7665L6.20974 10.6972L6.20894 10.6975L6.23849 10.7665ZM6.26675 10.7548L6.29551 10.8241L6.29753 10.8231L6.26675 10.7548ZM6.42675 10.6854L6.39982 10.6154L6.3989 10.6158L6.42675 10.6854ZM6.63742 10.6161L6.65875 10.6881L6.66219 10.6869L6.63742 10.6161ZM6.80008 10.5628L6.82069 10.6349H6.82069L6.80008 10.5628ZM7.02942 10.5094L7.01471 10.4359L7.01422 10.436L7.02942 10.5094ZM7.10808 10.4908L7.09136 10.4176L7.08945 10.4181L7.10808 10.4908ZM7.10813 10.4907L7.12485 10.5639L7.12676 10.5634L7.10813 10.4907ZM7.18675 10.4721L7.17293 10.3984L7.17204 10.3985L7.18675 10.4721ZM7.44804 10.4348L7.45706 10.5092L7.45764 10.5091L7.44804 10.4348ZM7.44808 10.4348L7.43932 10.3603L7.43849 10.3604L7.44808 10.4348ZM7.50248 10.4266L7.49029 10.3526L7.49029 10.3526L7.50248 10.4266ZM7.58408 10.4161L7.58849 10.491L7.59155 10.4907L7.58408 10.4161ZM8.40008 10.4161L8.40885 10.3416L8.4074 10.3414L8.40008 10.4161ZM8.53608 10.4348L8.54539 10.3603L8.54485 10.3603L8.53608 10.4348ZM8.53613 10.4348L8.52683 10.5092L8.5271 10.5092L8.53613 10.4348ZM8.79742 10.4721L8.81212 10.3985L8.81124 10.3984L8.79742 10.4721ZM8.92805 10.5027L8.94698 10.4301L8.94638 10.43L8.92805 10.5027ZM8.92811 10.5027L8.90918 10.5753L8.90983 10.5755L8.92811 10.5027ZM8.95475 10.5094L8.93645 10.5822L8.93956 10.5829L8.95475 10.5094ZM9.18408 10.5628L9.16348 10.6349L9.18408 10.5628ZM9.29926 10.6L9.27494 10.6709L9.27515 10.671L9.29926 10.6ZM9.34675 10.6161L9.37128 10.5452L9.37086 10.5451L9.34675 10.6161ZM9.45207 10.6507L9.47498 10.5793L9.45207 10.6507ZM9.55742 10.6854L9.58413 10.6153L9.58195 10.6145L9.55742 10.6854ZM9.64512 10.7231L9.67758 10.6555L9.67625 10.6549L9.64512 10.7231ZM9.64519 10.7232L9.61273 10.7908L9.61407 10.7914L9.64519 10.7232ZM9.71742 10.7548L9.74764 10.6861L9.74527 10.6851L9.71742 10.7548ZM9.78561 10.7838L9.75668 10.853L9.78561 10.7838ZM9.91208 10.8401L9.87854 10.9072H9.87854L9.91208 10.8401ZM10.0277 10.9023L10.0694 10.8397L10.0642 10.8368L10.0277 10.9023ZM10.0277 10.9023L9.98596 10.9649L9.99131 10.9679L10.0277 10.9023ZM10.0694 10.9254L10.1058 10.8599L10.1058 10.8598L10.0694 10.9254ZM10.0694 10.9254L10.033 10.991L10.0347 10.9919L10.0694 10.9254ZM10.2507 11.0268L10.2105 11.09L10.2107 11.0902L10.2507 11.0268ZM10.3254 11.076L10.3676 11.0141L10.3673 11.0139L10.3254 11.076ZM10.3254 11.0761L10.2832 11.1381L10.2834 11.1382L10.3254 11.0761ZM10.4001 11.1254L10.4414 11.0628L10.4401 11.062L10.4001 11.1254ZM10.4483 11.1573L10.407 11.2199L10.4071 11.22L10.4483 11.1573ZM10.5707 11.2401L10.6147 11.1793L10.6143 11.1791L10.5707 11.2401ZM10.7121 11.3548L10.6624 11.4111L10.6655 11.4136L10.7121 11.3548ZM10.7543 11.3881L10.7078 11.447L10.7079 11.4471L10.7543 11.3881ZM10.8694 11.4827L10.8194 11.5386L10.8198 11.539L10.8694 11.4827ZM10.9361 11.5454L10.9883 11.4916L10.9361 11.5454ZM11.0028 11.6081L11.0543 11.5535L11.0524 11.5518L11.0028 11.6081ZM11.1467 11.7494L11.2014 11.698L11.2013 11.6979L11.1467 11.7494ZM11.2575 11.8769L11.1998 11.9249L11.201 11.9263L11.2575 11.8769ZM11.2575 11.877L11.3151 11.8289L11.3139 11.8276L11.2575 11.877ZM11.2668 11.8881L11.2091 11.9361L11.2109 11.9381L11.2668 11.8881ZM11.3974 12.0401L11.4566 11.994L11.4563 11.9936L11.3974 12.0401ZM11.4663 12.1336L11.4046 12.1779L11.4133 12.1866L11.4663 12.1336ZM11.4663 12.1336L11.5281 12.0893L11.5194 12.0806L11.4663 12.1336ZM11.5068 12.1894L11.4464 12.2339L11.4467 12.2344L11.5068 12.1894ZM11.6241 12.3521L11.687 12.3112L11.6865 12.3105L11.6241 12.3521ZM11.6887 12.4588L11.7535 12.421L11.7535 12.421L11.6887 12.4588ZM11.7201 12.5121L11.7845 12.4737L11.7844 12.4735L11.7201 12.5121ZM11.7483 12.5595L11.6839 12.5979L11.684 12.598L11.7483 12.5595ZM11.8214 12.6854L11.8879 12.6506L11.8873 12.6495L11.8214 12.6854ZM11.9041 12.8534L11.8364 12.8857L11.8365 12.8859L11.9041 12.8534ZM11.9214 12.8894L11.8538 12.9219L11.8539 12.922L11.9214 12.8894ZM11.9894 13.0374L12.0588 13.009L12.0586 13.0086L11.9894 13.0374ZM12.0561 13.2161L11.9852 13.2407L11.9859 13.2424L12.0561 13.2161ZM12.1254 13.4081L12.1972 13.3862L12.1966 13.3844L12.1254 13.4081ZM12.1761 13.5948L12.1033 13.6129L12.1039 13.615L12.1761 13.5948ZM12.1761 13.5948L12.2483 13.5746V13.5746L12.1761 13.5948ZM12.2294 13.7948L12.3029 13.7794L12.3023 13.7772L12.2294 13.7948ZM12.2641 13.9867L12.3381 13.9744L12.2641 13.9867ZM12.2641 13.9868L12.1901 13.9991L12.1904 14.0008L12.2641 13.9868ZM12.2907 14.1546L12.2165 14.1653L12.2168 14.167L12.2907 14.1546ZM12.2907 14.1548L12.3412 14.2102L12.3715 14.1827L12.3647 14.1424L12.2907 14.1548ZM3.45075 13.9787L3.40529 14.0384L3.50692 14.1159L3.525 13.9894L3.45075 13.9787ZM3.47208 13.8721L3.39931 13.8539L3.399 13.8552L3.47208 13.8721ZM3.47208 13.8721L3.5449 13.8903L3.54551 13.8874L3.47208 13.8721ZM3.47795 13.8438L3.4045 13.8286L3.4045 13.8286L3.47795 13.8438ZM3.51475 13.6774L3.58755 13.6956L3.58809 13.6931L3.51475 13.6774ZM3.57075 13.4614L3.64266 13.4827L3.64275 13.4824L3.57075 13.4614ZM3.62942 13.2721L3.70025 13.2967L3.70029 13.2966L3.62942 13.2721ZM3.70408 13.0667L3.63424 13.0394L3.63408 13.0398L3.70408 13.0667ZM3.77875 12.8854L3.84703 12.9165L3.8474 12.9156L3.77875 12.8854ZM3.87208 12.6881L3.93918 12.7216L3.9398 12.7203L3.87208 12.6881ZM3.96008 12.5174L4.02522 12.5546L4.02603 12.5531L3.96008 12.5174ZM4.0694 12.3308L4.00579 12.291L4.00533 12.2918L4.0694 12.3308ZM4.06942 12.3307L4.13307 12.3705L4.13453 12.368L4.06942 12.3307ZM4.17075 12.1681L4.10793 12.1271L4.10787 12.1272L4.17075 12.1681ZM4.26676 12.0321L4.32719 12.0765L4.32719 12.0765L4.26676 12.0321ZM4.29608 11.9921L4.2357 11.9476L4.23543 11.948L4.29608 11.9921ZM4.41075 11.8401L4.35245 11.7929L4.35188 11.7936L4.41075 11.8401ZM4.55208 11.6774L4.60784 11.7276L4.60853 11.7268L4.55208 11.6774ZM4.5521 11.6774L4.49605 11.6276L4.49566 11.628L4.5521 11.6774ZM4.68008 11.5361L4.62703 11.483L4.62547 11.4847L4.68008 11.5361ZM4.82713 11.394L4.87878 11.4484L4.87879 11.4484L4.82713 11.394ZM4.83475 11.3868L4.78335 11.3321L4.78309 11.3324L4.83475 11.3868ZM4.86917 11.354L4.921 11.4082H4.921L4.86917 11.354ZM4.97342 11.2587L5.02147 11.3164L5.02359 11.3145L4.97342 11.2587ZM5.08482 11.1675L5.03865 11.1084L5.03865 11.1084L5.08482 11.1675ZM5.14142 11.1227L5.09688 11.0623L5.09423 11.0645L5.14142 11.1227ZM5.21608 11.0654L5.16981 11.0064L5.16981 11.0064L5.21608 11.0654ZM5.29075 11.0081L5.24664 10.9474L5.24626 10.9477L5.29075 11.0081ZM5.47208 10.8854L5.43121 10.8225L5.43111 10.8226L5.47208 10.8854ZM5.51707 10.8559L5.47578 10.7933H5.47578L5.51707 10.8559ZM5.62942 10.7841L5.59162 10.7193L5.59083 10.7198L5.62942 10.7841ZM5.77396 10.7044L5.80939 10.7705L5.80939 10.7705L5.77396 10.7044ZM5.82408 10.6774L5.8598 10.7434L5.86023 10.7431L5.82408 10.6774ZM5.86904 10.6523L5.90589 10.7176H5.90589L5.86904 10.6523ZM5.98675 10.5894L5.95532 10.5213L5.95451 10.5217L5.98675 10.5894ZM6.19468 10.4988L6.16545 10.4297H6.16545L6.19468 10.4988ZM6.19475 10.4987L6.22397 10.5678L6.22429 10.5677L6.19475 10.4987ZM6.25074 10.4742L6.2812 10.5427H6.2812L6.25074 10.4742ZM6.36275 10.4268L6.3367 10.3564L6.33605 10.3567L6.36275 10.4268ZM6.58408 10.3521L6.60704 10.4235L6.6078 10.4232L6.58408 10.3521ZM6.64009 10.3328L6.61536 10.262L6.61536 10.262L6.64009 10.3328ZM6.75208 10.2961L6.73276 10.2236L6.73148 10.224L6.75208 10.2961ZM6.90888 10.2593L6.89284 10.186H6.89284L6.90888 10.2593ZM6.99475 10.2401L7.0118 10.3131L7.01294 10.3128L6.99475 10.2401ZM7.15742 10.2028L7.17145 10.2764L7.17254 10.2762L7.15742 10.2028ZM7.43475 10.1627L7.44327 10.2373L7.44351 10.2372L7.43475 10.1627ZM7.49843 10.1541L7.5092 10.2283L7.5092 10.2283L7.49843 10.1541ZM7.57342 10.1441L7.56766 10.0693L7.56513 10.0695L7.57342 10.1441ZM8.42675 10.1441L8.43552 10.0696L8.43379 10.0694L8.42675 10.1441ZM8.49041 10.1527L8.50118 10.0785L8.50118 10.0785L8.49041 10.1527ZM8.56542 10.1627L8.57603 10.0885L8.5737 10.0882L8.56542 10.1627ZM8.65467 10.175L8.66461 10.1006L8.65467 10.175ZM8.84275 10.2028L8.85678 10.1291L8.85578 10.1289L8.84275 10.2028ZM9.00542 10.2401L8.9872 10.3129L8.99117 10.3137L9.00542 10.2401ZM9.24808 10.2961L9.26869 10.224L9.26741 10.2236L9.24808 10.2961ZM9.36008 10.3328L9.38481 10.262L9.3848 10.262L9.36008 10.3328ZM9.41608 10.3521L9.39236 10.4232L9.39313 10.4235L9.41608 10.3521ZM9.63742 10.4268L9.66412 10.3567L9.66347 10.3564L9.63742 10.4268ZM9.74942 10.4742L9.77988 10.4056L9.74942 10.4742ZM9.80542 10.4987L9.77587 10.5677L9.77619 10.5678L9.80542 10.4987ZM9.84432 10.5151L9.87336 10.446L9.87336 10.446L9.84432 10.5151ZM10.0134 10.5894L10.0482 10.5229L10.0459 10.5218L10.0134 10.5894ZM10.176 10.6774L10.2122 10.6117L10.2122 10.6117L10.176 10.6774ZM10.1761 10.6774L10.1399 10.7432L10.1415 10.744L10.1761 10.6774ZM10.3707 10.7841L10.4093 10.7198L10.4085 10.7193L10.3707 10.7841ZM10.4831 10.8559L10.4418 10.9185L10.4418 10.9185L10.4831 10.8559ZM10.5281 10.8854L10.5691 10.8226L10.569 10.8225L10.5281 10.8854ZM10.7094 11.0081L10.6653 11.0687L10.7094 11.0081ZM10.7094 11.0081L10.7539 10.9477L10.7536 10.9475L10.7094 11.0081ZM10.8587 11.1227L10.8107 11.1804L10.8116 11.181L10.8587 11.1227ZM10.9153 11.1675L10.8692 11.2266L10.9153 11.1675ZM11.0267 11.2587L10.9765 11.3145L10.9787 11.3164L11.0267 11.2587ZM11.131 11.354L11.1828 11.2998L11.131 11.354ZM11.1654 11.3868L11.114 11.4414L11.1152 11.4425L11.1654 11.3868ZM11.4154 11.6403L11.4719 11.5909L11.4719 11.5909L11.4154 11.6403ZM11.4481 11.6774L11.392 11.7272L11.3923 11.7276L11.4481 11.6774ZM11.5894 11.8401L11.6483 11.7936L11.6477 11.7929L11.5894 11.8401ZM11.7041 11.9921L11.7647 11.948L11.7645 11.9476L11.7041 11.9921ZM11.8294 12.1681L11.8923 12.1272L11.8914 12.1258L11.8294 12.1681ZM11.8801 12.2494L11.9441 12.2104H11.9441L11.8801 12.2494ZM11.9307 12.3307L11.9965 12.2942L11.9936 12.2899L11.9307 12.3307ZM11.9308 12.3308L11.8652 12.3672L11.8667 12.3698L11.9308 12.3308ZM12.0401 12.5174L12.1065 12.4826L12.106 12.4817L12.0401 12.5174ZM12.1281 12.6881L12.1957 12.6556L12.1952 12.6545L12.1281 12.6881ZM12.1517 12.7369L12.0842 12.7696L12.1517 12.7369ZM12.2214 12.8854L12.2902 12.8555L12.2901 12.8552L12.2214 12.8854ZM12.2961 13.0667L12.2262 13.0941L12.2264 13.0946L12.2961 13.0667ZM12.3707 13.272L12.4416 13.2475L12.3707 13.272ZM12.3707 13.2721L12.4419 13.2484L12.4416 13.2476L12.3707 13.2721ZM12.4294 13.4614L12.3574 13.4824L12.3575 13.4827L12.4294 13.4614ZM12.4854 13.6774L12.4122 13.6937L12.4127 13.6956L12.4854 13.6774ZM12.5281 13.8721L12.6024 13.8615L12.6016 13.8574L12.5281 13.8721ZM12.5394 13.9293L12.6125 13.9127V13.9127L12.5394 13.9293ZM12.5494 13.9787L12.4753 13.9902L12.4945 14.1149L12.5949 14.0384L12.5494 13.9787ZM3.48308 14.2801V14.2774H3.33308V14.2801H3.48308ZM3.51543 14.2642L3.45143 14.2189L3.36473 14.3413L3.42873 14.3866L3.51543 14.2642ZM3.70009 14.398L3.51609 14.2647L3.42808 14.3861L3.61208 14.5195L3.70009 14.398ZM3.58108 14.4508V14.4587H3.73108V14.4508H3.58108ZM4.3555 14.7926C4.13475 14.6744 3.9158 14.5346 3.69786 14.3885L3.61431 14.513C3.8337 14.6602 4.05742 14.8031 4.28467 14.9249L4.3555 14.7926ZM8.00008 15.7064C6.72967 15.7064 5.4699 15.3921 4.35561 14.7927L4.28455 14.9248C5.42093 15.5361 6.70516 15.8564 8.00008 15.8564V15.7064ZM11.6447 14.7926C10.5302 15.3895 9.27039 15.7064 8.00008 15.7064V15.8564C9.29511 15.8564 10.5793 15.5334 11.7155 14.9249L11.6447 14.7926ZM12.3018 14.3888C12.0847 14.5371 11.8657 14.6742 11.6447 14.7926L11.7155 14.9249C11.9425 14.8033 12.1662 14.6631 12.3864 14.5127L12.3018 14.3888ZM12.4191 14.4587V14.4508H12.2691V14.4587H12.4191ZM12.4841 14.2647L12.3001 14.398L12.3881 14.5195L12.5721 14.3861L12.4841 14.2647ZM12.5487 14.2189L12.4847 14.2642L12.5714 14.3866L12.6354 14.3413L12.5487 14.2189ZM12.5171 14.2774V14.2801H12.6671V14.2774H12.5171ZM15.7064 8.00008C15.7064 10.4507 14.5259 12.767 12.5477 14.2169L12.6364 14.3379C14.6529 12.8599 15.8564 10.4988 15.8564 8.00008H15.7064ZM8.00008 0.29375C12.2493 0.29375 15.7064 3.75084 15.7064 8.00008H15.8564C15.8564 3.668 12.3322 0.14375 8.00008 0.14375V0.29375ZM0.29375 8.00008C0.29375 3.75084 3.75084 0.29375 8.00008 0.29375V0.14375C3.668 0.14375 0.14375 3.668 0.14375 8.00008H0.29375ZM3.45242 14.2169C1.47425 12.767 0.29375 10.4507 0.29375 8.00008H0.14375C0.14375 10.4988 1.34726 12.8599 3.36375 14.3379L3.45242 14.2169ZM12.0577 14.4105C12.0797 14.3958 12.1013 14.3814 12.1235 14.3671L12.042 14.2411C12.0188 14.2561 11.9964 14.2711 11.9745 14.2857L12.0577 14.4105ZM11.9902 14.4551C12.0133 14.4401 12.0357 14.4251 12.0577 14.4105L11.9745 14.2857C11.9524 14.3004 11.9308 14.3148 11.9087 14.3291L11.9902 14.4551ZM11.5877 14.6901C11.7224 14.6173 11.8572 14.5391 11.9895 14.4555L11.9093 14.3287C11.7803 14.4104 11.6484 14.4868 11.5164 14.5581L11.5877 14.6901ZM8.00008 15.5924C9.24978 15.5924 10.4913 15.28 11.5876 14.6901L11.5165 14.558C10.4422 15.1361 9.22505 15.4424 8.00008 15.4424V15.5924ZM4.41255 14.6901C5.50884 15.28 6.75039 15.5924 8.00008 15.5924V15.4424C6.77511 15.4424 5.55799 15.1361 4.48362 14.558L4.41255 14.6901ZM4.01123 14.4558C4.14538 14.539 4.2774 14.6172 4.41245 14.6901L4.48372 14.5581C4.3521 14.487 4.22278 14.4105 4.09027 14.3283L4.01123 14.4558ZM3.92658 14.4006C3.95329 14.4189 3.98226 14.4388 4.01272 14.4567L4.08878 14.3274C4.06354 14.3126 4.03882 14.2957 4.01138 14.2769L3.92658 14.4006ZM3.87667 14.3671C3.89318 14.3777 3.90946 14.3889 3.92658 14.4006L4.01138 14.2769C3.99451 14.2653 3.97661 14.2531 3.95816 14.2411L3.87667 14.3671ZM3.65141 14.2169C3.7259 14.2674 3.80131 14.3186 3.87686 14.3672L3.95797 14.241C3.88426 14.1936 3.81041 14.1435 3.73564 14.0928L3.65141 14.2169ZM3.65346 14.2182L3.65347 14.2182L3.73357 14.0914L3.73356 14.0914L3.65346 14.2182ZM3.65159 14.217L3.65169 14.2171L3.73533 14.0926L3.73524 14.0925L3.65159 14.217ZM3.63277 14.0584C3.62813 14.0863 3.62331 14.1151 3.61917 14.1441L3.76766 14.1654C3.77152 14.1384 3.77604 14.1112 3.78073 14.0831L3.63277 14.0584ZM3.63292 14.0575L3.63292 14.0576L3.78058 14.0839L3.78059 14.0839L3.63292 14.0575ZM3.64584 13.9761C3.64198 14.0031 3.63746 14.0303 3.63277 14.0584L3.78073 14.0831C3.78537 14.0552 3.79019 14.0264 3.79433 13.9974L3.64584 13.9761ZM3.68133 13.7795C3.66763 13.8452 3.65673 13.9107 3.6461 13.9744L3.79406 13.9991C3.80477 13.9348 3.8152 13.8723 3.82817 13.81L3.68133 13.7795ZM3.73586 13.5745C3.71726 13.641 3.6982 13.709 3.68182 13.7772L3.82768 13.8123C3.8433 13.7472 3.86157 13.6819 3.88031 13.615L3.73586 13.5745ZM3.74369 13.5443L3.73549 13.5759L3.88068 13.6136L3.88888 13.582L3.74369 13.5443ZM3.787 13.3862C3.77098 13.4389 3.75694 13.4931 3.74368 13.5444L3.88889 13.582C3.9023 13.5302 3.91556 13.479 3.9305 13.4299L3.787 13.3862ZM3.84518 13.2234C3.8256 13.2752 3.80555 13.3282 3.78732 13.3852L3.93018 13.4309C3.94706 13.3782 3.96573 13.3287 3.9855 13.2764L3.84518 13.2234ZM3.84376 13.2275L3.84376 13.2275L3.98693 13.2723L3.98693 13.2722L3.84376 13.2275ZM3.8579 13.1896L3.84517 13.2234L3.98553 13.2763L3.99826 13.2425L3.8579 13.1896ZM3.87098 13.1534L3.85755 13.1906L3.99862 13.2416L4.01205 13.2044L3.87098 13.1534ZM3.8713 13.1526L3.87129 13.1526L4.01174 13.2053L4.01175 13.2052L3.8713 13.1526ZM3.92533 13.009C3.90566 13.0571 3.88782 13.1067 3.87096 13.1535L4.01209 13.2043C4.02913 13.157 4.0459 13.1105 4.06417 13.0658L3.92533 13.009ZM4.01242 12.8211C3.98319 12.8822 3.95327 12.9447 3.92597 13.0075L4.06353 13.0673C4.08957 13.0074 4.11831 12.9473 4.14774 12.8858L4.01242 12.8211ZM4.02793 12.7883L4.01229 12.8213L4.14788 12.8855L4.16352 12.8524L4.02793 12.7883ZM4.09703 12.6493C4.07211 12.6946 4.04924 12.7431 4.02789 12.7884L4.16355 12.8524C4.18529 12.8063 4.20618 12.7621 4.22847 12.7216L4.09703 12.6493ZM4.17146 12.521C4.1465 12.5627 4.12103 12.6053 4.09691 12.6495L4.22859 12.7213C4.25104 12.6802 4.27497 12.6402 4.30018 12.598L4.17146 12.521ZM4.17582 12.5145L4.17582 12.5145L4.29582 12.6045L4.29582 12.6045L4.17582 12.5145ZM4.19965 12.4737L4.17139 12.5211L4.30025 12.5979L4.32851 12.5505L4.19965 12.4737ZM4.23044 12.4208C4.22001 12.439 4.21 12.4565 4.19977 12.4735L4.3284 12.5507C4.3395 12.5322 4.35024 12.5134 4.36055 12.4955L4.23044 12.4208ZM4.22842 12.4246L4.22841 12.4246L4.36258 12.4917L4.36258 12.4917L4.22842 12.4246ZM4.29818 12.3097C4.27312 12.3464 4.25092 12.3851 4.23045 12.4208L4.36055 12.4955C4.38156 12.4589 4.40084 12.4253 4.42198 12.3944L4.29818 12.3097ZM4.41742 12.1444C4.37762 12.1975 4.33636 12.2525 4.29768 12.3105L4.42249 12.3937C4.45848 12.3397 4.49722 12.288 4.53742 12.2344L4.41742 12.1444ZM4.45685 12.0899C4.44353 12.1085 4.43044 12.1267 4.41704 12.1449L4.5378 12.2339C4.55185 12.2148 4.5655 12.1958 4.57873 12.1774L4.45685 12.0899ZM4.45661 12.0903L4.45659 12.0903L4.57899 12.177L4.57902 12.177L4.45661 12.0903ZM4.52755 11.994C4.50291 12.0257 4.47954 12.0583 4.45688 12.0899L4.57875 12.1773C4.60171 12.1453 4.6234 12.1151 4.64595 12.0861L4.52755 11.994ZM4.60837 11.8993C4.5824 11.9287 4.55488 11.9599 4.52818 11.9932L4.64532 12.0869C4.66939 12.0568 4.69452 12.0283 4.72085 11.9985L4.60837 11.8993ZM4.60992 11.8976L4.6099 11.8976L4.71933 12.0002L4.71935 12.0001L4.60992 11.8976ZM4.66005 11.8398C4.64342 11.8595 4.62628 11.879 4.60839 11.8992L4.72088 11.9985C4.73858 11.9784 4.75686 11.9577 4.77479 11.9364L4.66005 11.8398ZM4.72047 11.7699C4.70041 11.7933 4.68076 11.8163 4.66118 11.8385L4.77365 11.9377C4.79407 11.9146 4.81442 11.8908 4.83436 11.8676L4.72047 11.7699ZM4.78118 11.6998C4.76076 11.7229 4.74041 11.7467 4.72047 11.7699L4.83436 11.8676C4.85442 11.8442 4.87407 11.8212 4.89365 11.799L4.78118 11.6998ZM4.87094 11.6108C4.84197 11.6385 4.81154 11.6676 4.78289 11.6979L4.89194 11.8009C4.91752 11.7738 4.94514 11.7474 4.97461 11.7192L4.87094 11.6108ZM4.86975 11.612L4.86974 11.612L4.97581 11.718L4.97582 11.718L4.86975 11.612ZM4.87106 11.6107L4.871 11.6107L4.97457 11.7192L4.97464 11.7192L4.87106 11.6107ZM4.92838 11.555C4.90981 11.5736 4.89072 11.5919 4.87101 11.6107L4.97469 11.7191C4.99419 11.7005 5.01449 11.6811 5.03445 11.6611L4.92838 11.555ZM4.97284 11.5121C4.95839 11.5262 4.94444 11.5399 4.93002 11.5535L5.03282 11.6627C5.04851 11.6479 5.06351 11.6332 5.0778 11.6192L4.97284 11.5121ZM5.06674 11.4251C5.03201 11.4541 5.00143 11.4841 4.97284 11.5121L5.0778 11.6192C5.10698 11.5907 5.13339 11.5648 5.16276 11.5404L5.06674 11.4251ZM5.1835 11.3292C5.14469 11.3597 5.10409 11.3917 5.06474 11.4269L5.16476 11.5386C5.19999 11.5071 5.23685 11.4781 5.27626 11.4471L5.1835 11.3292ZM5.22555 11.2959L5.18334 11.3293L5.27642 11.447L5.31862 11.4136L5.22555 11.2959ZM5.2949 11.2397C5.27142 11.2591 5.24897 11.2777 5.22604 11.2956L5.31813 11.414C5.34319 11.3945 5.36741 11.3744 5.3906 11.3552L5.2949 11.2397ZM5.29338 11.241L5.29336 11.241L5.39214 11.3539L5.39216 11.3538L5.29338 11.241ZM5.36737 11.1809C5.34231 11.2004 5.3181 11.2204 5.29492 11.2396L5.39062 11.3552C5.41409 11.3357 5.43653 11.3171 5.45946 11.2993L5.36737 11.1809ZM5.49462 11.0946C5.45396 11.1214 5.41129 11.1494 5.36982 11.1791L5.45701 11.3011C5.49573 11.2735 5.53598 11.247 5.57705 11.22L5.49462 11.0946ZM5.54274 11.0628L5.49449 11.0947L5.57718 11.2199L5.62543 11.188L5.54274 11.0628ZM5.60449 11.0214C5.58346 11.0359 5.56385 11.0495 5.54403 11.062L5.62413 11.1888C5.64703 11.1744 5.66919 11.159 5.68978 11.1448L5.60449 11.0214ZM5.60356 11.0221L5.60354 11.0221L5.69073 11.1441L5.69075 11.1441L5.60356 11.0221ZM5.60031 11.0245L5.6003 11.0245L5.69401 11.1417L5.69401 11.1417L5.60031 11.0245ZM5.69584 10.9618C5.66349 10.9806 5.63261 11.002 5.60451 11.0214L5.68981 11.1448C5.71881 11.1247 5.74474 11.1069 5.77099 11.0917L5.69584 10.9618ZM5.80665 10.8996C5.76982 10.9197 5.73212 10.9404 5.69526 10.9622L5.77157 11.0913C5.806 11.071 5.84155 11.0515 5.87875 11.0311L5.80665 10.8996ZM5.87785 10.8601C5.85427 10.8735 5.83063 10.8864 5.80665 10.8996L5.87875 11.0311C5.90259 11.018 5.92709 11.0046 5.95165 10.9907L5.87785 10.8601ZM5.92007 10.8367L5.87836 10.8598L5.95114 10.991L5.99285 10.9679L5.92007 10.8367ZM6.03854 10.773C5.99752 10.7935 5.95823 10.8154 5.91995 10.8368L5.99298 10.9678C6.03172 10.9462 6.0681 10.9259 6.10562 10.9072L6.03854 10.773ZM6.20977 10.6972C6.15498 10.7199 6.09594 10.7443 6.03854 10.773L6.10563 10.9072C6.15747 10.8812 6.21157 10.8588 6.26716 10.8358L6.20977 10.6972ZM6.20894 10.6975L6.20892 10.6976L6.26801 10.8354L6.26803 10.8354L6.20894 10.6975ZM6.238 10.6855L6.20974 10.6972L6.26723 10.8358L6.2955 10.824L6.238 10.6855ZM6.3989 10.6158C6.34384 10.6378 6.28904 10.6625 6.23597 10.6864L6.29753 10.8231C6.35112 10.799 6.403 10.7757 6.4546 10.7551L6.3989 10.6158ZM6.61611 10.5442C6.54385 10.5656 6.47211 10.5876 6.39983 10.6154L6.45367 10.7554C6.52006 10.7299 6.58698 10.7093 6.65872 10.688L6.61611 10.5442ZM6.77948 10.4906C6.72104 10.5073 6.66568 10.5267 6.61264 10.5453L6.66219 10.6869C6.71582 10.6681 6.76713 10.6502 6.82069 10.6349L6.77948 10.4906ZM7.01422 10.436C6.93738 10.4519 6.85728 10.4684 6.77948 10.4906L6.82069 10.6349C6.89222 10.6144 6.96679 10.599 7.04461 10.5829L7.01422 10.436ZM7.08945 10.4181C7.06315 10.4248 7.03908 10.431 7.01471 10.4359L7.04413 10.583C7.07308 10.5772 7.10101 10.57 7.12671 10.5634L7.08945 10.4181ZM7.09142 10.4176L7.09137 10.4176L7.12479 10.5639L7.12484 10.5639L7.09142 10.4176ZM7.17204 10.3985C7.1431 10.4043 7.11517 10.4115 7.0895 10.4181L7.12676 10.5634C7.15305 10.5566 7.1771 10.5505 7.20146 10.5456L7.17204 10.3985ZM7.43901 10.3603C7.35147 10.3709 7.26104 10.3818 7.17293 10.3984L7.20057 10.5458C7.28309 10.5303 7.36864 10.5199 7.45706 10.5092L7.43901 10.3603ZM7.43849 10.3604L7.43844 10.3604L7.45764 10.5091L7.45768 10.5091L7.43849 10.3604ZM7.49029 10.3526C7.47187 10.3557 7.45545 10.3584 7.43932 10.3603L7.45685 10.5092C7.47699 10.5069 7.49683 10.5036 7.51467 10.5006L7.49029 10.3526ZM7.57968 10.3412C7.5479 10.3431 7.51681 10.3483 7.49029 10.3526L7.51467 10.5006C7.54255 10.4961 7.56587 10.4923 7.58849 10.491L7.57968 10.3412ZM7.99208 10.3224C7.85153 10.3224 7.71297 10.3278 7.57662 10.3415L7.59155 10.4907C7.72186 10.4777 7.8553 10.4724 7.99208 10.4724V10.3224ZM8.4074 10.3414C8.26854 10.3278 8.13272 10.3224 7.99208 10.3224V10.4724C8.12878 10.4724 8.25963 10.4777 8.39277 10.4907L8.4074 10.3414ZM8.479 10.3512C8.45651 10.3479 8.43277 10.3444 8.40885 10.3416L8.39132 10.4906C8.41273 10.4931 8.43432 10.4963 8.45717 10.4996L8.479 10.3512ZM8.54485 10.3603C8.52344 10.3577 8.50184 10.3546 8.479 10.3512L8.45717 10.4996C8.47966 10.5029 8.5034 10.5064 8.52732 10.5092L8.54485 10.3603ZM8.54543 10.3603L8.54539 10.3603L8.52678 10.5092L8.52683 10.5092L8.54543 10.3603ZM8.81124 10.3984C8.72312 10.3818 8.6327 10.3709 8.54515 10.3603L8.5271 10.5092C8.61553 10.5199 8.70107 10.5303 8.78359 10.5458L8.81124 10.3984ZM8.94638 10.43C8.90291 10.419 8.85861 10.4078 8.81212 10.3985L8.78271 10.5456C8.82496 10.5541 8.8657 10.5643 8.90971 10.5754L8.94638 10.43ZM8.94705 10.4301L8.94698 10.4301L8.90912 10.5753L8.90918 10.5753L8.94705 10.4301ZM8.97304 10.4367L8.9464 10.43L8.90983 10.5755L8.93646 10.5822L8.97304 10.4367ZM9.20469 10.4906C9.12688 10.4684 9.04679 10.4519 8.96994 10.436L8.93956 10.5829C9.01738 10.599 9.09195 10.6144 9.16348 10.6349L9.20469 10.4906ZM9.32358 10.529C9.28558 10.516 9.24666 10.5026 9.20469 10.4906L9.16348 10.6349C9.20113 10.6456 9.23645 10.6577 9.27494 10.6709L9.32358 10.529ZM9.37086 10.5451L9.32338 10.5289L9.27515 10.671L9.32264 10.6871L9.37086 10.5451ZM9.47498 10.5793C9.43951 10.568 9.405 10.5569 9.37128 10.5452L9.32222 10.687C9.35783 10.6993 9.39398 10.7109 9.42917 10.7222L9.47498 10.5793ZM9.58195 10.6145C9.54633 10.6022 9.51017 10.5906 9.47498 10.5793L9.42917 10.7222C9.46465 10.7335 9.49916 10.7446 9.53288 10.7563L9.58195 10.6145ZM9.67625 10.6549C9.64805 10.642 9.6171 10.6279 9.58412 10.6153L9.53072 10.7555C9.55849 10.7661 9.58516 10.7782 9.61399 10.7914L9.67625 10.6549ZM9.67765 10.6556L9.67758 10.6555L9.61267 10.7908L9.61274 10.7908L9.67765 10.6556ZM9.74527 10.6851C9.72282 10.6761 9.70062 10.666 9.67631 10.6549L9.61407 10.7914C9.63782 10.8022 9.66326 10.8139 9.68956 10.8244L9.74527 10.6851ZM9.81455 10.7146C9.79196 10.7051 9.7699 10.6959 9.74762 10.6861L9.68721 10.8234C9.71096 10.8338 9.73429 10.8436 9.75668 10.853L9.81455 10.7146ZM9.94563 10.773C9.90109 10.7507 9.85686 10.7323 9.81455 10.7146L9.75668 10.853C9.79968 10.8709 9.83927 10.8875 9.87854 10.9072L9.94563 10.773ZM10.0642 10.8368C10.0259 10.8154 9.98665 10.7935 9.94562 10.773L9.87854 10.9072C9.91606 10.9259 9.95244 10.9462 9.99118 10.9678L10.0642 10.8368ZM10.0693 10.8399L10.0693 10.8399L9.98609 10.9647L9.9861 10.9647L10.0693 10.8399ZM10.1058 10.8598L10.0641 10.8367L9.99131 10.9679L10.033 10.991L10.1058 10.8598ZM10.1059 10.8599L10.1058 10.8599L10.033 10.991L10.033 10.991L10.1059 10.8599ZM10.291 10.9635C10.2292 10.9241 10.165 10.8907 10.1041 10.8589L10.0347 10.9919C10.0965 11.0242 10.155 11.0547 10.2105 11.09L10.291 10.9635ZM10.3673 11.0139C10.3429 10.9973 10.3173 10.98 10.2908 10.9633L10.2107 11.0902C10.2349 11.1054 10.2586 11.1214 10.2834 11.1382L10.3673 11.0139ZM10.3677 11.0141L10.3676 11.0141L10.2831 11.138L10.2832 11.1381L10.3677 11.0141ZM10.4401 11.062C10.4159 11.0467 10.3922 11.0307 10.3674 11.0139L10.2834 11.1382C10.3079 11.1548 10.3336 11.1721 10.36 11.1888L10.4401 11.062ZM10.4897 11.0947L10.4414 11.0628L10.3587 11.188L10.407 11.2199L10.4897 11.0947ZM10.6143 11.1791C10.5729 11.1494 10.5302 11.1214 10.4895 11.0946L10.4071 11.22C10.4482 11.247 10.4884 11.2735 10.5272 11.3011L10.6143 11.1791ZM10.7617 11.2985C10.7154 11.2577 10.6654 11.2159 10.6147 11.1793L10.5268 11.3009C10.5721 11.3336 10.6181 11.3718 10.6625 11.411L10.7617 11.2985ZM10.8008 11.3293L10.7586 11.2959L10.6655 11.4136L10.7078 11.447L10.8008 11.3293ZM10.9194 11.4269C10.8801 11.3917 10.8395 11.3597 10.8007 11.3292L10.7079 11.4471C10.7473 11.4781 10.7842 11.5071 10.8194 11.5386L10.9194 11.4269ZM10.9883 11.4916C10.9665 11.4705 10.9433 11.4479 10.919 11.4265L10.8198 11.539C10.8409 11.5576 10.8616 11.5777 10.8839 11.5993L10.9883 11.4916ZM11.0524 11.5518C11.0312 11.5332 11.0105 11.5131 10.9883 11.4916L10.8839 11.5993C10.9056 11.6204 10.9289 11.643 10.9531 11.6643L11.0524 11.5518ZM11.2013 11.6979C11.1542 11.6481 11.102 11.5987 11.0542 11.5536L10.9513 11.6626C10.9995 11.7081 11.0486 11.7547 11.0922 11.8009L11.2013 11.6979ZM11.3151 11.8289C11.2787 11.7853 11.2425 11.7417 11.2014 11.698L11.0921 11.8008C11.1297 11.8407 11.1631 11.8808 11.1998 11.9249L11.3151 11.8289ZM11.3139 11.8276L11.3139 11.8275L11.201 11.9263L11.201 11.9263L11.3139 11.8276ZM11.3244 11.8401L11.3151 11.829L11.1999 11.925L11.2091 11.9361L11.3244 11.8401ZM11.4563 11.9936C11.4146 11.9408 11.3677 11.8884 11.3226 11.8381L11.2109 11.9381C11.2565 11.9891 11.3002 12.038 11.3386 12.0866L11.4563 11.9936ZM11.5273 12.0899C11.5046 12.0583 11.4813 12.0257 11.4566 11.994L11.3382 12.0861C11.3608 12.1151 11.3824 12.1453 11.4054 12.1773L11.5273 12.0899ZM11.5194 12.0806L11.5194 12.0806L11.4133 12.1866L11.4133 12.1866L11.5194 12.0806ZM11.5671 12.1449C11.5537 12.1267 11.5406 12.1085 11.5273 12.0899L11.4054 12.1773C11.4187 12.1958 11.4323 12.2148 11.4464 12.2339L11.5671 12.1449ZM11.6865 12.3105C11.6478 12.2525 11.6066 12.1975 11.5668 12.1444L11.4467 12.2344C11.4869 12.288 11.5257 12.3397 11.5617 12.3937L11.6865 12.3105ZM11.7535 12.421C11.7329 12.3856 11.7112 12.3485 11.687 12.3112L11.5612 12.393C11.5832 12.4268 11.603 12.4608 11.6239 12.4965L11.7535 12.421ZM11.7844 12.4735C11.774 12.4562 11.7639 12.4388 11.7535 12.421L11.6239 12.4965C11.6342 12.5143 11.6448 12.5324 11.6558 12.5507L11.7844 12.4735ZM11.8128 12.5211L11.7845 12.4737L11.6557 12.5505L11.6839 12.5979L11.8128 12.5211ZM11.8873 12.6495C11.8631 12.6053 11.8377 12.5627 11.8127 12.521L11.684 12.598C11.7092 12.6402 11.7331 12.6802 11.7556 12.7213L11.8873 12.6495ZM11.9718 12.8212C11.9452 12.7654 11.918 12.7081 11.8879 12.6506L11.755 12.7202C11.7835 12.7747 11.8096 12.8295 11.8364 12.8857L11.9718 12.8212ZM11.989 12.8569L11.9717 12.8209L11.8365 12.8859L11.8538 12.9219L11.989 12.8569ZM12.0586 13.0086C12.0363 12.955 12.0123 12.9052 11.989 12.8568L11.8539 12.922C11.8774 12.9709 11.8997 13.0171 11.9202 13.0663L12.0586 13.0086ZM12.1269 13.1914C12.1054 13.1295 12.0836 13.0695 12.0588 13.009L11.92 13.0658C11.9433 13.1227 11.9641 13.18 11.9852 13.2407L12.1269 13.1914ZM12.1966 13.3844C12.1747 13.3188 12.1502 13.2535 12.1263 13.1897L11.9859 13.2424C12.0099 13.3066 12.0334 13.3693 12.0543 13.4318L12.1966 13.3844ZM12.2488 13.5766C12.2328 13.5122 12.2164 13.4494 12.1972 13.3862L12.0537 13.4299C12.0718 13.4894 12.0874 13.5493 12.1033 13.6129L12.2488 13.5766ZM12.2483 13.5746L12.2483 13.5745L12.1039 13.615L12.1039 13.615L12.2483 13.5746ZM12.3023 13.7772C12.286 13.709 12.2669 13.641 12.2483 13.5746L12.1039 13.615C12.1226 13.6819 12.1409 13.7472 12.1565 13.8123L12.3023 13.7772ZM12.3381 13.9744C12.3274 13.9106 12.3165 13.8452 12.3028 13.7795L12.156 13.81C12.169 13.8723 12.1794 13.9348 12.1901 13.999L12.3381 13.9744ZM12.3381 13.9744L12.3381 13.9744L12.1901 13.999L12.1901 13.9991L12.3381 13.9744ZM12.365 14.144C12.357 14.0884 12.3488 14.0307 12.3378 13.9727L12.1904 14.0008C12.2007 14.0548 12.2085 14.109 12.2165 14.1653L12.365 14.144ZM12.3647 14.1424L12.3647 14.1423L12.2168 14.167L12.2168 14.167L12.3647 14.1424ZM12.3647 14.1424L12.3647 14.1424L12.2168 14.167L12.2168 14.1671L12.3647 14.1424ZM12.1233 14.3672C12.1966 14.32 12.277 14.2686 12.3412 14.2102L12.2403 14.0993C12.1872 14.1476 12.1182 14.1921 12.0422 14.241L12.1233 14.3672ZM8.00008 0.560417C12.1027 0.560417 15.4397 3.8975 15.4397 8.00008H15.5897C15.5897 3.81466 12.1855 0.410417 8.00008 0.410417V0.560417ZM0.560417 8.00008C0.560417 3.8975 3.8975 0.560417 8.00008 0.560417V0.410417C3.81466 0.410417 0.410417 3.81466 0.410417 8.00008H0.560417ZM3.49621 13.9191C1.6534 12.5146 0.560417 10.3179 0.560417 8.00008H0.410417C0.410417 10.3649 1.52543 12.6056 3.40529 14.0384L3.49621 13.9191ZM3.399 13.8552C3.39109 13.8895 3.38236 13.9272 3.3765 13.9681L3.525 13.9894C3.52981 13.9557 3.53707 13.924 3.54516 13.889L3.399 13.8552ZM3.39932 13.8539L3.39932 13.8539L3.54484 13.8903L3.54484 13.8903L3.39932 13.8539ZM3.4045 13.8286C3.40254 13.8381 3.4006 13.8475 3.39866 13.8568L3.54551 13.8874C3.54747 13.878 3.54943 13.8685 3.55139 13.859L3.4045 13.8286ZM3.44199 13.6592C3.4279 13.7156 3.41588 13.7737 3.4045 13.8286L3.55139 13.859C3.56288 13.8036 3.57429 13.7485 3.58751 13.6956L3.44199 13.6592ZM3.49884 13.4401C3.47716 13.5133 3.45794 13.5846 3.44141 13.6617L3.58809 13.6931C3.60356 13.6209 3.62168 13.5535 3.64266 13.4827L3.49884 13.4401ZM3.55858 13.2474C3.53651 13.3109 3.51732 13.3768 3.49875 13.4404L3.64275 13.4824C3.66152 13.4181 3.67966 13.3559 3.70025 13.2967L3.55858 13.2474ZM3.63408 13.0398C3.60704 13.1101 3.58274 13.1776 3.55854 13.2476L3.70029 13.2966C3.72409 13.2279 3.7478 13.162 3.77408 13.0937L3.63408 13.0398ZM3.71047 12.8544C3.68283 12.9152 3.65811 12.9784 3.63424 13.0394L3.77393 13.0941C3.79806 13.0324 3.82134 12.973 3.84703 12.9165L3.71047 12.8544ZM3.805 12.6545C3.77265 12.7192 3.74008 12.7871 3.7101 12.8552L3.8474 12.9156C3.87608 12.8504 3.90751 12.7849 3.93917 12.7216L3.805 12.6545ZM3.89496 12.4802C3.86165 12.5385 3.83141 12.599 3.80437 12.6558L3.9398 12.7203C3.96609 12.6651 3.99452 12.6083 4.0252 12.5546L3.89496 12.4802ZM4.00533 12.2918C3.96816 12.3529 3.92984 12.4158 3.89414 12.4817L4.02603 12.5531C4.05964 12.4911 4.09598 12.4314 4.13346 12.3698L4.00533 12.2918ZM4.00582 12.291L4.0058 12.291L4.133 12.3705L4.13302 12.3705L4.00582 12.291ZM4.10787 12.1272C4.07338 12.1803 4.03754 12.2354 4.0043 12.2935L4.13453 12.368C4.1653 12.3141 4.19878 12.2626 4.23363 12.209L4.10787 12.1272ZM4.20632 11.9877C4.17373 12.0321 4.14008 12.0778 4.10793 12.1271L4.23357 12.2091C4.26307 12.1638 4.29424 12.1214 4.32719 12.0765L4.20632 11.9877ZM4.23543 11.948C4.22577 11.9612 4.2161 11.9744 4.20632 11.9877L4.32719 12.0765C4.33693 12.0633 4.34682 12.0498 4.35674 12.0362L4.23543 11.948ZM4.35188 11.7936C4.31099 11.8454 4.27293 11.8971 4.2357 11.9476L4.35646 12.0366C4.39391 11.9858 4.43051 11.9361 4.46962 11.8866L4.35188 11.7936ZM4.49634 11.6272C4.44855 11.6803 4.39923 11.7351 4.35246 11.7929L4.46904 11.8873C4.51294 11.8331 4.55962 11.7812 4.60783 11.7276L4.49634 11.6272ZM4.49566 11.628L4.49564 11.628L4.60853 11.7268L4.60855 11.7268L4.49566 11.628ZM4.62547 11.4847C4.58195 11.5309 4.53857 11.5797 4.49605 11.6276L4.60816 11.7272C4.65095 11.6791 4.6929 11.6319 4.7347 11.5875L4.62547 11.4847ZM4.77548 11.3396C4.72504 11.3875 4.67609 11.434 4.62705 11.4831L4.73312 11.5891C4.78057 11.5417 4.82812 11.4965 4.87878 11.4484L4.77548 11.3396ZM4.78309 11.3324L4.77547 11.3396L4.87879 11.4484L4.88641 11.4411L4.78309 11.3324ZM4.81734 11.2998C4.8058 11.3108 4.79456 11.3216 4.78335 11.3321L4.88615 11.4414C4.89786 11.4303 4.90953 11.4192 4.921 11.4082L4.81734 11.2998ZM4.9254 11.2011C4.88724 11.2329 4.85101 11.2676 4.81734 11.2998L4.921 11.4082C4.95533 11.3754 4.98786 11.3443 5.02143 11.3164L4.9254 11.2011ZM5.03865 11.1084C5.00108 11.1377 4.96107 11.169 4.92324 11.203L5.02359 11.3145C5.05688 11.2845 5.09272 11.2565 5.131 11.2266L5.03865 11.1084ZM5.09423 11.0645C5.07615 11.0791 5.0577 11.0935 5.03865 11.1084L5.13099 11.2266C5.14987 11.2118 5.16935 11.1966 5.18861 11.181L5.09423 11.0645ZM5.16981 11.0064C5.14501 11.0258 5.12121 11.0445 5.09693 11.0624L5.18591 11.1831C5.21229 11.1637 5.23782 11.1437 5.26235 11.1244L5.16981 11.0064ZM5.24626 10.9477C5.21988 10.9671 5.19434 10.9872 5.16981 11.0064L5.26235 11.1244C5.28716 11.105 5.31095 11.0864 5.33524 11.0685L5.24626 10.9477ZM5.43111 10.8226C5.37006 10.8624 5.30711 10.9034 5.24664 10.9474L5.33486 11.0687C5.39172 11.0274 5.45144 10.9884 5.51305 10.9482L5.43111 10.8226ZM5.47578 10.7933C5.46089 10.8031 5.44614 10.8128 5.43121 10.8225L5.51296 10.9483C5.52837 10.9383 5.54352 10.9283 5.55835 10.9185L5.47578 10.7933ZM5.59083 10.7198C5.55107 10.7436 5.51295 10.7688 5.47578 10.7933L5.55835 10.9185C5.59596 10.8937 5.63143 10.8703 5.668 10.8484L5.59083 10.7198ZM5.73854 10.6383C5.69054 10.664 5.64043 10.6908 5.59163 10.7193L5.66721 10.8489C5.71328 10.822 5.76099 10.7964 5.80939 10.7705L5.73854 10.6383ZM5.78836 10.6115C5.77198 10.6203 5.75539 10.6292 5.73854 10.6383L5.80939 10.7705C5.82619 10.7615 5.84307 10.7524 5.8598 10.7434L5.78836 10.6115ZM5.8322 10.5869C5.81711 10.5955 5.80249 10.6037 5.78794 10.6117L5.86023 10.7431C5.8756 10.7347 5.89092 10.726 5.90589 10.7176L5.8322 10.5869ZM5.95451 10.5217C5.91149 10.5422 5.87034 10.5654 5.83219 10.5869L5.90589 10.7176C5.94478 10.6957 5.98144 10.675 6.01899 10.6571L5.95451 10.5217ZM6.16545 10.4297C6.09632 10.459 6.0259 10.4887 5.95532 10.5213L6.01818 10.6575C6.08621 10.6261 6.15442 10.5972 6.2239 10.5679L6.16545 10.4297ZM6.16553 10.4297L6.16545 10.4297L6.2239 10.5679L6.22397 10.5678L6.16553 10.4297ZM6.22028 10.4056C6.20154 10.414 6.18333 10.422 6.16521 10.4298L6.22429 10.5677C6.24349 10.5595 6.26262 10.551 6.2812 10.5427L6.22028 10.4056ZM6.33605 10.3567C6.29649 10.3717 6.25728 10.3892 6.22028 10.4056L6.2812 10.5427C6.31888 10.526 6.35434 10.5102 6.38945 10.4968L6.33605 10.3567ZM6.56113 10.2807C6.48675 10.3046 6.4105 10.3291 6.3367 10.3564L6.3888 10.4971C6.459 10.4711 6.53208 10.4476 6.60703 10.4235L6.56113 10.2807ZM6.61536 10.262C6.59661 10.2686 6.57844 10.2749 6.56037 10.2809L6.6078 10.4232C6.62706 10.4168 6.64623 10.4101 6.66482 10.4036L6.61536 10.262ZM6.73148 10.224C6.69171 10.2353 6.65232 10.2491 6.61536 10.262L6.66481 10.4036C6.70252 10.3905 6.73779 10.3782 6.77269 10.3682L6.73148 10.224ZM6.89284 10.186C6.8407 10.1974 6.7863 10.2093 6.73276 10.2236L6.77141 10.3686C6.82113 10.3553 6.87222 10.3441 6.92492 10.3326L6.89284 10.186ZM6.97771 10.167C6.94993 10.1735 6.92173 10.1797 6.89284 10.186L6.92492 10.3326C6.95363 10.3263 6.98284 10.3199 7.01179 10.3131L6.97771 10.167ZM7.14338 10.1291C7.08496 10.1402 7.02961 10.1541 6.97656 10.1673L7.01294 10.3128C7.06656 10.2994 7.11787 10.2866 7.17145 10.2764L7.14338 10.1291ZM7.42623 10.0882C7.33349 10.0988 7.2368 10.1098 7.14229 10.1293L7.17254 10.2762C7.25937 10.2583 7.34934 10.248 7.44327 10.2373L7.42623 10.0882ZM7.48766 10.0799C7.46608 10.083 7.44595 10.0859 7.42599 10.0883L7.44351 10.2372C7.46582 10.2346 7.48796 10.2314 7.5092 10.2283L7.48766 10.0799ZM7.56513 10.0695C7.53807 10.0725 7.51199 10.0763 7.48766 10.0799L7.5092 10.2283C7.53388 10.2247 7.55752 10.2213 7.5817 10.2186L7.56513 10.0695ZM8.00008 10.0504C7.85342 10.0504 7.70733 10.0586 7.56766 10.0693L7.57917 10.2189C7.71684 10.2083 7.85874 10.2004 8.00008 10.2004V10.0504ZM8.43379 10.0694C8.28967 10.0558 8.14593 10.0504 8.00008 10.0504V10.2004C8.14224 10.2004 8.28117 10.2057 8.41971 10.2188L8.43379 10.0694ZM8.50118 10.0785C8.47995 10.0754 8.45782 10.0722 8.43551 10.0696L8.41799 10.2186C8.43794 10.2209 8.45807 10.2238 8.47964 10.227L8.50118 10.0785ZM8.5737 10.0882C8.54951 10.0855 8.52587 10.0821 8.50118 10.0785L8.47964 10.227C8.50398 10.2305 8.53006 10.2343 8.55713 10.2373L8.5737 10.0882ZM8.66461 10.1006C8.63486 10.0966 8.60542 10.0927 8.57602 10.0885L8.55481 10.237C8.58498 10.2413 8.61509 10.2453 8.64473 10.2493L8.66461 10.1006ZM8.85578 10.1289C8.79224 10.1177 8.7277 10.1091 8.66461 10.1006L8.64473 10.2493C8.70837 10.2578 8.76978 10.266 8.82972 10.2766L8.85578 10.1289ZM9.02361 10.1673C8.97056 10.1541 8.9152 10.1402 8.85678 10.1291L8.82872 10.2764C8.8823 10.2866 8.93361 10.2994 8.98723 10.3128L9.02361 10.1673ZM9.26741 10.2236C9.18588 10.2019 9.10419 10.1828 9.01967 10.1664L8.99117 10.3137C9.07198 10.3294 9.15029 10.3476 9.22876 10.3686L9.26741 10.2236ZM9.3848 10.262C9.34784 10.2491 9.30846 10.2353 9.26869 10.224L9.22748 10.3682C9.26238 10.3782 9.29765 10.3905 9.33535 10.4036L9.3848 10.262ZM9.4398 10.2809C9.42172 10.2749 9.40356 10.2686 9.38481 10.262L9.33535 10.4036C9.35393 10.4101 9.37311 10.4168 9.39237 10.4232L9.4398 10.2809ZM9.66347 10.3564C9.58966 10.3291 9.51342 10.3046 9.43903 10.2807L9.39313 10.4235C9.46809 10.4476 9.54117 10.4711 9.61137 10.4971L9.66347 10.3564ZM9.77988 10.4056C9.74289 10.3892 9.70368 10.3717 9.66412 10.3567L9.61072 10.4968C9.64582 10.5102 9.68128 10.526 9.71896 10.5427L9.77988 10.4056ZM9.83496 10.4298C9.81683 10.422 9.79862 10.414 9.77988 10.4056L9.71896 10.5427C9.73755 10.551 9.75667 10.5595 9.77587 10.5677L9.83496 10.4298ZM9.87336 10.446C9.86032 10.4405 9.84743 10.4351 9.83464 10.4297L9.77619 10.5678C9.78919 10.5733 9.80226 10.5788 9.81527 10.5843L9.87336 10.446ZM10.0459 10.5218C9.98962 10.4948 9.93005 10.4698 9.87336 10.446L9.81527 10.5843C9.87263 10.6084 9.92867 10.6319 9.98096 10.657L10.0459 10.5218ZM10.2122 10.6117C10.1589 10.5824 10.105 10.5527 10.0482 10.523L9.97862 10.6559C10.0338 10.6848 10.0865 10.7137 10.1399 10.7431L10.2122 10.6117ZM10.2122 10.6117L10.2122 10.6117L10.1399 10.7431L10.1399 10.7431L10.2122 10.6117ZM10.4085 10.7193C10.3432 10.6812 10.2781 10.6459 10.2107 10.6109L10.1415 10.744C10.2074 10.7783 10.2703 10.8123 10.333 10.8489L10.4085 10.7193ZM10.5244 10.7933C10.4872 10.7688 10.4491 10.7436 10.4093 10.7198L10.3322 10.8484C10.3687 10.8703 10.4042 10.8937 10.4418 10.9185L10.5244 10.7933ZM10.569 10.8225C10.554 10.8128 10.5393 10.8031 10.5244 10.7933L10.4418 10.9185C10.4566 10.9283 10.4718 10.9383 10.4872 10.9483L10.569 10.8225ZM10.7535 10.9474C10.6931 10.9034 10.6301 10.8624 10.5691 10.8226L10.4871 10.9482C10.5487 10.9884 10.6084 11.0274 10.6653 11.0687L10.7535 10.9474ZM10.7536 10.9475L10.7535 10.9474L10.6653 11.0687L10.6653 11.0688L10.7536 10.9475ZM10.9068 11.0651C10.8568 11.0235 10.8043 10.9848 10.7539 10.9477L10.665 11.0685C10.7159 11.106 10.7648 11.142 10.8107 11.1804L10.9068 11.0651ZM10.9615 11.1084C10.9425 11.0935 10.924 11.0791 10.9059 11.0645L10.8116 11.181C10.8308 11.1966 10.8503 11.2118 10.8692 11.2266L10.9615 11.1084ZM11.0769 11.203C11.0391 11.169 10.9991 11.1377 10.9615 11.1084L10.8692 11.2266C10.9074 11.2565 10.9433 11.2845 10.9766 11.3145L11.0769 11.203ZM11.1828 11.2998C11.1492 11.2676 11.1129 11.2329 11.0748 11.2011L10.9787 11.3164C11.0123 11.3443 11.0448 11.3754 11.0792 11.4082L11.1828 11.2998ZM11.2168 11.3321C11.2056 11.3216 11.1944 11.3108 11.1828 11.2998L11.0792 11.4082C11.0906 11.4192 11.1023 11.4303 11.114 11.4414L11.2168 11.3321ZM11.3731 11.4831C11.3227 11.4326 11.2706 11.3805 11.2156 11.331L11.1152 11.4425C11.1669 11.489 11.2162 11.5382 11.267 11.5891L11.3731 11.4831ZM11.4719 11.5909C11.4411 11.5557 11.4088 11.5187 11.3731 11.4831L11.267 11.5891C11.2986 11.6207 11.3277 11.6539 11.359 11.6897L11.4719 11.5909ZM11.5041 11.6276C11.4934 11.6155 11.4827 11.6033 11.4719 11.5909L11.359 11.6897C11.3697 11.702 11.3808 11.7146 11.392 11.7272L11.5041 11.6276ZM11.6477 11.7929C11.6009 11.7351 11.5516 11.6803 11.5038 11.6272L11.3923 11.7276C11.4406 11.7812 11.4872 11.8331 11.5311 11.8873L11.6477 11.7929ZM11.7645 11.9476C11.7272 11.8971 11.6892 11.8454 11.6483 11.7936L11.5306 11.8866C11.5697 11.9361 11.6063 11.9858 11.6437 12.0366L11.7645 11.9476ZM11.8914 12.1258C11.8506 12.0661 11.8073 12.0065 11.7647 11.948L11.6434 12.0362C11.6862 12.095 11.7282 12.1528 11.7674 12.2103L11.8914 12.1258ZM11.9441 12.2104C11.9276 12.1832 11.9103 12.1549 11.8923 12.1272L11.7665 12.209C11.7832 12.2346 11.7993 12.261 11.8161 12.2885L11.9441 12.2104ZM11.9936 12.2899C11.977 12.2643 11.9609 12.2379 11.9441 12.2104L11.8161 12.2885C11.8326 12.3156 11.8498 12.3439 11.8679 12.3716L11.9936 12.2899ZM11.9963 12.2944L11.9963 12.2943L11.8652 12.3672L11.8652 12.3672L11.9963 12.2944ZM12.106 12.4817C12.0703 12.4158 12.032 12.3529 11.9948 12.2918L11.8667 12.3698C11.9042 12.4313 11.9405 12.4911 11.9741 12.5531L12.106 12.4817ZM12.1952 12.6545C12.1655 12.5951 12.1358 12.5385 12.1065 12.4826L11.9736 12.5522C12.003 12.6083 12.032 12.6637 12.061 12.7216L12.1952 12.6545ZM12.2191 12.7042C12.2113 12.688 12.2035 12.6719 12.1957 12.6556L12.0605 12.7205C12.0684 12.7371 12.0763 12.7535 12.0842 12.7696L12.2191 12.7042ZM12.2901 12.8552C12.2673 12.8035 12.2431 12.7535 12.2191 12.7042L12.0842 12.7696C12.1083 12.8193 12.1313 12.8668 12.1528 12.9156L12.2901 12.8552ZM12.3659 13.0394C12.3416 12.9774 12.3173 12.9178 12.2902 12.8555L12.1526 12.9153C12.1789 12.9757 12.2025 13.0335 12.2262 13.0941L12.3659 13.0394ZM12.4416 13.2475C12.4177 13.1785 12.3931 13.1075 12.3657 13.0389L12.2264 13.0946C12.2523 13.1593 12.2758 13.2269 12.2998 13.2965L12.4416 13.2475ZM12.4416 13.2476L12.4416 13.2475L12.2998 13.2965L12.2999 13.2966L12.4416 13.2476ZM12.5014 13.4404C12.4826 13.3759 12.4636 13.3136 12.4419 13.2484L12.2996 13.2958C12.3205 13.3586 12.3389 13.419 12.3574 13.4824L12.5014 13.4404ZM12.5586 13.6611C12.5422 13.5874 12.5231 13.5137 12.5013 13.4401L12.3575 13.4827C12.3784 13.5531 12.3966 13.6234 12.4122 13.6937L12.5586 13.6611ZM12.6016 13.8574C12.5882 13.7905 12.5746 13.725 12.5582 13.6592L12.4127 13.6956C12.4282 13.7578 12.4413 13.8204 12.4545 13.8868L12.6016 13.8574ZM12.6125 13.9127C12.6082 13.8937 12.6046 13.8777 12.6023 13.8615L12.4538 13.8827C12.4571 13.9058 12.4621 13.9277 12.4662 13.9458L12.6125 13.9127ZM12.6235 13.9673C12.6206 13.9479 12.6162 13.9289 12.6125 13.9127L12.4662 13.9458C12.4701 13.963 12.4732 13.9768 12.4753 13.9902L12.6235 13.9673ZM15.4397 8.00008C15.4397 10.3179 14.3468 12.5146 12.504 13.9191L12.5949 14.0384C14.4747 12.6056 15.5897 10.3649 15.5897 8.00008H15.4397Z" fill="black"/>
<path fill-rule="evenodd" clip-rule="evenodd" d="M11.2056 6.16822C11.2056 7.93622 9.76826 9.37356 8.00026 9.37356C6.23226 9.37356 4.79492 7.93622 4.79492 6.16822C4.79492 4.40022 6.23226 2.96289 8.00026 2.96289C9.76826 2.96289 11.2056 4.40022 11.2056 6.16822ZM10.9389 6.16822C10.9389 4.54956 9.62159 3.22956 8.00026 3.22956C6.37892 3.22956 5.06159 4.54689 5.06159 6.16822C5.06159 7.78956 6.37892 9.10689 8.00026 9.10689C9.62159 9.10689 10.9389 7.78689 10.9389 6.16822Z" fill="black"/>
<path d="M8.00026 9.44856C9.80968 9.44856 11.2806 7.97765 11.2806 6.16822H11.1306C11.1306 7.8948 9.72683 9.29856 8.00026 9.29856V9.44856ZM4.71992 6.16822C4.71992 7.97765 6.19083 9.44856 8.00026 9.44856V9.29856C6.27368 9.29856 4.86992 7.8948 4.86992 6.16822H4.71992ZM8.00026 2.88789C6.19083 2.88789 4.71992 4.3588 4.71992 6.16822H4.86992C4.86992 4.44165 6.27368 3.03789 8.00026 3.03789V2.88789ZM11.2806 6.16822C11.2806 4.3588 9.80968 2.88789 8.00026 2.88789V3.03789C9.72683 3.03789 11.1306 4.44165 11.1306 6.16822H11.2806ZM8.00026 3.30456C9.58012 3.30456 10.8639 4.59093 10.8639 6.16822H11.0139C11.0139 4.50818 9.66305 3.15456 8.00026 3.15456V3.30456ZM5.13659 6.16822C5.13659 4.58831 6.42034 3.30456 8.00026 3.30456V3.15456C6.3375 3.15456 4.98659 4.50547 4.98659 6.16822H5.13659ZM8.00026 9.03189C6.42034 9.03189 5.13659 7.74814 5.13659 6.16822H4.98659C4.98659 7.83098 6.3375 9.18189 8.00026 9.18189V9.03189ZM10.8639 6.16822C10.8639 7.74551 9.58012 9.03189 8.00026 9.03189V9.18189C9.66305 9.18189 11.0139 7.82827 11.0139 6.16822H10.8639Z" fill="black"/>
</svg>
