<svg width="1076" height="459" viewBox="0 0 1076 459" fill="none" xmlns="http://www.w3.org/2000/svg">
<mask id="mask0_834_812" style="mask-type:alpha" maskUnits="userSpaceOnUse" x="0" y="0" width="1076" height="459">
<rect width="1076" height="459" rx="7" fill="#C4C4C4"/>
</mask>
<g mask="url(#mask0_834_812)">
<rect width="1076" height="459" fill="url(#paint0_linear_834_812)"/>
<rect x="2" y="2" width="1072" height="455" rx="5" fill="#FFFBF5"/>
<path opacity="0.2" d="M1018.77 224.236C1026.89 352.155 966.303 450.697 869.764 517.283C773.209 583.881 640.693 618.5 505.038 618.5C396.038 618.5 321.114 594.156 259.059 543.868C196.977 493.557 147.732 417.247 90.1682 313.199C57.0166 253.276 38.5158 204.008 33.7469 164.47C28.98 124.949 37.9351 95.1938 59.6498 74.1972C81.3881 53.1779 115.992 40.8572 162.69 36.4067C209.379 31.957 268.087 35.381 337.954 45.7836C402.951 55.461 477.027 55.4615 551.802 54.0288C564.987 53.7761 578.193 53.4789 591.375 53.1823C652.97 51.7962 714.043 50.4218 769.954 53.6589C837.838 57.5891 898.031 68.3149 942.257 94.0164C986.441 119.694 1014.72 160.338 1018.77 224.236Z" stroke="url(#paint1_linear_834_812)"/>
<path opacity="0.2" d="M910.991 -149.728C999.679 -13.323 1045.74 177.943 1035.23 335.091C1029.97 413.664 1010.58 483.658 975.344 533.994C940.125 584.308 889.073 614.999 820.412 614.999C709.905 614.999 556.82 555.207 416.73 468.986C276.644 382.768 149.676 270.198 91.3482 164.756C57.7236 103.971 41.319 55.1645 40.0041 16.8136C38.6904 -21.5018 52.4351 -49.3794 79.1612 -68.3962C105.923 -87.4387 145.753 -97.6322 196.661 -100.413C247.558 -103.193 309.469 -98.5604 380.339 -88.0071C494.411 -71.0208 576.049 -131.291 646.157 -183.049C657.182 -191.188 667.922 -199.116 678.458 -206.501C717.273 -233.706 753.255 -253.491 790.565 -249.547C827.849 -245.606 866.641 -217.939 910.991 -149.728Z" stroke="url(#paint2_linear_834_812)"/>
</g>
<defs>
<linearGradient id="paint0_linear_834_812" x1="-41.2467" y1="-12.6225" x2="305.28" y2="791.24" gradientUnits="userSpaceOnUse">
<stop stop-color="#E2B36C"/>
<stop offset="1" stop-color="#AD4F6A"/>
</linearGradient>
<linearGradient id="paint1_linear_834_812" x1="-5.87333" y1="17.9125" x2="529.423" y2="912.536" gradientUnits="userSpaceOnUse">
<stop stop-color="#EDC581"/>
<stop offset="1" stop-color="#BE728B"/>
</linearGradient>
<linearGradient id="paint2_linear_834_812" x1="1.16942" y1="-274.365" x2="892.791" y2="742.169" gradientUnits="userSpaceOnUse">
<stop stop-color="#EDC581"/>
<stop offset="1" stop-color="#BE728B"/>
</linearGradient>
</defs>
</svg>
