<svg width="1076" height="362" viewBox="0 0 1076 362" fill="none" xmlns="http://www.w3.org/2000/svg">
<mask id="mask0_822_579" style="mask-type:alpha" maskUnits="userSpaceOnUse" x="0" y="0" width="1076" height="362">
<rect width="1076" height="362" rx="4" fill="white"/>
</mask>
<g mask="url(#mask0_822_579)">
<rect width="1076" height="362" rx="4" fill="white"/>
<path opacity="0.1" d="M394.444 221.943C376.627 339.989 224.835 420 104.683 420C-15.47 420 -56.6109 287.28 -75.3632 170.555C-94.1156 53.8299 52.1692 -123.247 162.822 -2.64812C273.476 117.951 412.261 103.898 394.444 221.943Z" fill="url(#paint0_linear_822_579)"/>
<path opacity="0.2" d="M873.589 124.995C965.943 267.066 1013.91 466.277 1002.96 629.953C997.49 711.79 977.292 784.693 940.6 837.123C903.922 889.531 850.756 921.5 779.251 921.5C664.175 921.5 504.763 859.224 358.885 769.422C213.012 679.624 80.7961 562.379 20.0571 452.556C-14.957 389.246 -32.0409 338.41 -33.4103 298.462C-34.7785 258.55 -20.4634 229.508 7.3728 209.697C35.245 189.861 76.7239 179.244 129.736 176.348C182.738 173.452 247.207 178.277 321.006 189.269C439.779 206.959 524.782 144.193 597.787 90.2862C609.267 81.809 620.451 73.551 631.422 65.8594C671.84 37.5247 709.315 16.9136 748.174 21.0224C787.007 25.1284 827.406 53.9506 873.589 124.995Z" stroke="url(#paint1_linear_822_579)"/>
<path opacity="0.2" d="M1154.85 272.484C1185.35 396.98 1143.04 504.645 1059.73 587.178C976.396 669.725 852.039 727.12 718.5 750.988C611.2 770.166 533.162 759.385 463.227 720.799C393.262 682.197 331.358 615.742 256.385 523.445C213.207 470.29 186.327 425.046 174.676 386.964C163.029 348.898 166.609 318.031 184.291 293.541C201.992 269.025 233.889 250.808 279.075 238.211C324.252 225.616 382.647 218.657 453.254 216.604C518.94 214.694 591.861 201.661 665.217 187.095C678.151 184.526 691.099 181.91 704.024 179.298C764.414 167.096 824.292 154.998 879.901 148.347C947.417 140.272 1008.56 140.24 1056.62 157.759C1104.63 175.262 1139.62 210.296 1154.85 272.484Z" stroke="url(#paint2_linear_822_579)"/>
<path opacity="0.1" d="M433.447 277.943C415.668 395.989 264.197 476 144.298 476C24.3999 476 -16.654 343.28 -35.3667 226.555C-54.0794 109.83 91.8961 -67.2468 202.315 53.3519C312.735 173.951 451.226 159.898 433.447 277.943Z" fill="url(#paint3_linear_822_579)"/>
<path d="M76.9463 57.4577C76.9463 59.3812 75.5455 60.9736 73.7752 61.726C69.185 63.6768 65.848 67.8896 63.7642 74.3642C62.4958 78.26 61.8616 82.1104 61.8616 85.9156C61.8616 86.2442 61.8616 86.549 61.8616 86.83C61.8616 87.0344 61.8565 87.0891 61.9024 87.2884V87.2884C62.1241 88.2527 62.8945 89.1771 63.8839 89.1771H72.9463C75.1554 89.1771 76.9463 90.968 76.9463 93.1771V114.803C76.9463 117.012 75.1554 118.803 72.9463 118.803H52C49.7909 118.803 48 117.012 48 114.803V91.4874C48 78.0788 50.6727 67.7505 56.018 60.5026C60.4102 54.5471 65.9034 50.6714 72.4977 48.8754C74.8211 48.2426 76.9463 50.129 76.9463 52.537V57.4577ZM122.744 57.3758C122.744 59.3356 121.294 60.9472 119.47 61.6624C116.061 62.9985 113.347 65.5111 111.329 69.2001C108.792 74.0018 107.523 79.5284 107.523 85.7797C107.523 86.2635 107.523 86.7473 107.523 87.2311C107.523 87.3505 107.53 87.4555 107.552 87.573V87.573C107.723 88.5253 108.598 89.1771 109.566 89.1771H118.744C120.953 89.1771 122.744 90.968 122.744 93.1771V114.803C122.744 117.012 120.953 118.803 118.744 118.803H97.6618C95.4526 118.803 93.6618 117.012 93.6618 114.803V91.4874C93.6618 80.7061 95.9267 71.1027 100.457 62.677C104.308 55.4363 110.255 50.8152 118.298 48.8138C120.63 48.2337 122.744 50.1188 122.744 52.5213V57.3758Z" fill="url(#paint4_linear_822_579)"/>
</g>
<defs>
<linearGradient id="paint0_linear_822_579" x1="277.75" y1="65.0333" x2="-350.886" y2="626.229" gradientUnits="userSpaceOnUse">
<stop offset="0.0279877" stop-color="#FFA15C"/>
<stop offset="1" stop-color="#EB1B54"/>
</linearGradient>
<linearGradient id="paint1_linear_822_579" x1="-50.5754" y1="324.173" x2="985.586" y2="768.227" gradientUnits="userSpaceOnUse">
<stop stop-color="#FC815A"/>
<stop offset="0.947917" stop-color="#FBAA60"/>
</linearGradient>
<linearGradient id="paint2_linear_822_579" x1="169.194" y1="455.805" x2="1084.73" y2="825.879" gradientUnits="userSpaceOnUse">
<stop stop-color="#FC815A"/>
<stop offset="0.947917" stop-color="#FBAA60"/>
</linearGradient>
<linearGradient id="paint3_linear_822_579" x1="317" y1="121.033" x2="-311.485" y2="680.908" gradientUnits="userSpaceOnUse">
<stop offset="0.0279877" stop-color="#FFA15C"/>
<stop offset="1" stop-color="#EB1B54"/>
</linearGradient>
<linearGradient id="paint4_linear_822_579" x1="104.058" y1="64.5207" x2="7.62" y2="153.483" gradientUnits="userSpaceOnUse">
<stop offset="0.0279877" stop-color="#FFA15C"/>
<stop offset="1" stop-color="#EB1B54"/>
</linearGradient>
</defs>
</svg>
