<svg width="160" height="36" viewBox="0 0 160 36" fill="none" xmlns="http://www.w3.org/2000/svg">
<g clip-path="url(#clip0_1112_629)">
<path d="M152 0H8C3.58172 0 0 3.58172 0 8V28C0 32.4183 3.58172 36 8 36H152C156.418 36 160 32.4183 160 28V8C160 3.58172 156.418 0 152 0Z" fill="#25D366"/>
<path fill-rule="evenodd" clip-rule="evenodd" d="M21.7886 8.78906C24.2072 8.80076 26.5414 9.75046 28.2874 11.4242C30.0755 13.1384 31.1059 15.4369 31.196 17.9122C31.284 20.3295 30.4401 22.704 28.8394 24.5174C27.0839 26.5063 24.6419 27.6486 22.0044 27.7243C21.9141 27.7269 21.8238 27.7282 21.7335 27.7282C20.3124 27.7282 18.9044 27.4077 17.6292 26.7941L12.6724 27.8965C12.661 27.8987 12.6493 27.8981 12.6382 27.8949C12.6271 27.8917 12.617 27.8859 12.6086 27.878C12.6002 27.87 12.5938 27.8602 12.5899 27.8493C12.5861 27.8385 12.5848 27.8268 12.5864 27.8154L13.4237 22.8034C12.7091 21.4977 12.3102 20.0266 12.2672 18.5303C12.1948 16.0018 13.1112 13.5966 14.8477 11.7575C16.6482 9.85056 19.107 8.78906 21.7417 8.78906H21.7886V8.78906ZM21.7359 10.4322C21.6602 10.4322 21.5846 10.4333 21.5085 10.4355C17.1947 10.5592 13.7859 14.1694 13.9097 18.4831C13.9475 19.8003 14.3185 21.0933 14.9828 22.2222L15.127 22.4669L14.5066 25.8679L17.8722 25.0734L18.1263 25.2057C19.2353 25.7827 20.4778 26.0851 21.7333 26.0851C21.8079 26.0851 21.8826 26.0841 21.9572 26.0819C26.271 25.9582 29.6798 22.3481 29.5561 18.0343C29.4345 13.7967 25.9483 10.4322 21.7359 10.4322V10.4322ZM18.4621 13.6843C18.6204 13.6891 18.779 13.6936 18.9172 13.7038C19.0864 13.7159 19.2735 13.7296 19.4394 14.1311C19.6362 14.6079 20.0618 15.7982 20.1176 15.9189C20.1733 16.0396 20.2087 16.1797 20.1246 16.3361C20.0405 16.4923 19.9978 16.5902 19.875 16.7253C19.752 16.8606 19.6157 17.0276 19.5058 17.1308C19.3829 17.2458 19.2552 17.3708 19.3866 17.6129C19.5179 17.8552 19.9708 18.6483 20.6578 19.3004C21.5408 20.1384 22.2489 20.4149 22.5302 20.5461C22.6316 20.5935 22.716 20.6159 22.7897 20.6159C22.8908 20.6159 22.9718 20.5736 23.049 20.4953C23.197 20.3453 23.6423 19.8256 23.8298 19.5866C23.9279 19.4615 24.0167 19.4172 24.1132 19.4172C24.1904 19.4172 24.2725 19.4456 24.3682 19.4838C24.5836 19.5698 25.7341 20.181 25.9681 20.3073C26.2021 20.4334 26.3586 20.4978 26.415 20.5987C26.4714 20.7 26.4566 21.1759 26.2416 21.7251C26.0265 22.2743 25.04 22.7801 24.6031 22.8063C24.4752 22.814 24.3494 22.8319 24.1855 22.8319C23.7897 22.8319 23.1723 22.7276 21.77 22.1237C19.3842 21.0963 17.9353 18.5717 17.8213 18.4095C17.7076 18.247 16.8907 17.0902 16.9267 15.9201C16.9626 14.7501 17.5942 14.1936 17.8194 13.9623C18.0352 13.7405 18.2825 13.6839 18.4422 13.6839L18.4621 13.6843V13.6843Z" fill="white"/>
<path d="M46.9736 17.3125H48.7976C48.7416 16.8165 48.6056 16.3765 48.3896 15.9925C48.1736 15.6085 47.8976 15.2885 47.5616 15.0325C47.2336 14.7685 46.8577 14.5685 46.4337 14.4325C46.0177 14.2965 45.5737 14.2285 45.1017 14.2285C44.4457 14.2285 43.8536 14.3445 43.3256 14.5765C42.8056 14.8085 42.3656 15.1285 42.0056 15.5365C41.6456 15.9445 41.3697 16.4245 41.1777 16.9765C40.9857 17.5205 40.8896 18.1125 40.8896 18.7525C40.8896 19.3765 40.9857 19.9605 41.1777 20.5045C41.3697 21.0405 41.6456 21.5085 42.0056 21.9085C42.3656 22.3085 42.8056 22.6245 43.3256 22.8565C43.8536 23.0805 44.4457 23.1925 45.1017 23.1925C45.6297 23.1925 46.1136 23.1125 46.5536 22.9525C46.9936 22.7925 47.3777 22.5605 47.7057 22.2565C48.0337 21.9525 48.2977 21.5845 48.4977 21.1525C48.6977 20.7205 48.8216 20.2365 48.8696 19.7005H47.0457C46.9737 20.2765 46.7736 20.7405 46.4456 21.0925C46.1256 21.4445 45.6777 21.6205 45.1017 21.6205C44.6777 21.6205 44.3176 21.5405 44.0216 21.3805C43.7256 21.2125 43.4857 20.9925 43.3017 20.7205C43.1177 20.4485 42.9817 20.1445 42.8937 19.8085C42.8137 19.4645 42.7737 19.1125 42.7737 18.7525C42.7737 18.3765 42.8137 18.0125 42.8937 17.6605C42.9817 17.3085 43.1177 16.9965 43.3017 16.7245C43.4857 16.4445 43.7256 16.2245 44.0216 16.0645C44.3176 15.8965 44.6777 15.8125 45.1017 15.8125C45.3337 15.8125 45.5537 15.8525 45.7617 15.9325C45.9777 16.0045 46.1697 16.1085 46.3377 16.2445C46.5057 16.3805 46.6456 16.5405 46.7576 16.7245C46.8696 16.9005 46.9416 17.0965 46.9736 17.3125V17.3125ZM49.9762 14.4325V23.0005H51.6801V19.7485C51.6801 19.1165 51.7841 18.6645 51.9921 18.3925C52.2001 18.1125 52.5361 17.9725 53.0001 17.9725C53.4081 17.9725 53.6921 18.1005 53.8521 18.3565C54.0121 18.6045 54.0921 18.9845 54.0921 19.4965V23.0005H55.7962V19.1845C55.7962 18.8005 55.7601 18.4525 55.6881 18.1405C55.6241 17.8205 55.5081 17.5525 55.3401 17.3365C55.1721 17.1125 54.9401 16.9405 54.6441 16.8205C54.3561 16.6925 53.9841 16.6285 53.5281 16.6285C53.2081 16.6285 52.8802 16.7125 52.5442 16.8805C52.2082 17.0405 51.9321 17.3005 51.7161 17.6605H51.6801V14.4325H49.9762V14.4325ZM57.0174 18.7045C57.0414 18.3045 57.1415 17.9725 57.3175 17.7085C57.4935 17.4445 57.7174 17.2325 57.9894 17.0725C58.2614 16.9125 58.5655 16.8005 58.9015 16.7365C59.2455 16.6645 59.5894 16.6285 59.9334 16.6285C60.2454 16.6285 60.5615 16.6525 60.8815 16.7005C61.2015 16.7405 61.4935 16.8245 61.7575 16.9525C62.0215 17.0805 62.2374 17.2605 62.4054 17.4925C62.5734 17.7165 62.6574 18.0165 62.6574 18.3925V21.6205C62.6574 21.9005 62.6734 22.1685 62.7054 22.4245C62.7374 22.6805 62.7935 22.8725 62.8735 23.0005H61.1455C61.1135 22.9045 61.0855 22.8085 61.0615 22.7125C61.0455 22.609 61.0335 22.5049 61.0254 22.4005C60.7534 22.6805 60.4334 22.8765 60.0654 22.9885C59.6974 23.1005 59.3215 23.1565 58.9375 23.1565C58.6415 23.1565 58.3655 23.1205 58.1095 23.0485C57.8535 22.9765 57.6295 22.8645 57.4375 22.7125C57.2455 22.5605 57.0934 22.3685 56.9814 22.1365C56.8774 21.9045 56.8255 21.6285 56.8255 21.3085C56.8255 20.9565 56.8855 20.6685 57.0055 20.4445C57.1335 20.2125 57.2935 20.0285 57.4855 19.8925C57.6855 19.7565 57.9094 19.6565 58.1574 19.5925C58.4134 19.5205 58.6694 19.4645 58.9254 19.4245C59.1814 19.3845 59.4334 19.3525 59.6814 19.3285C59.9294 19.3045 60.1494 19.2685 60.3414 19.2205C60.5334 19.1725 60.6855 19.1045 60.7975 19.0165C60.9095 18.9205 60.9614 18.7845 60.9534 18.6085C60.9534 18.4245 60.9214 18.2805 60.8574 18.1765C60.8014 18.0645 60.7215 17.9805 60.6175 17.9245C60.5215 17.8605 60.4055 17.8205 60.2695 17.8045C60.1415 17.7805 60.0014 17.7685 59.8494 17.7685C59.5134 17.7685 59.2494 17.8405 59.0574 17.9845C58.8654 18.1285 58.7535 18.3685 58.7215 18.7045H57.0174V18.7045ZM60.9534 19.9645C60.8814 20.0285 60.7894 20.0805 60.6774 20.1205C60.5734 20.1525 60.4574 20.1805 60.3294 20.2045C60.2094 20.2285 60.0814 20.2485 59.9454 20.2645C59.8094 20.2805 59.6734 20.3005 59.5374 20.3245C59.4094 20.3485 59.2815 20.3805 59.1535 20.4205C59.0335 20.4605 58.9254 20.5165 58.8294 20.5885C58.7414 20.6525 58.6694 20.7365 58.6134 20.8405C58.5574 20.9445 58.5294 21.0765 58.5294 21.2365C58.5294 21.3885 58.5574 21.5165 58.6134 21.6205C58.6673 21.7222 58.7457 21.8088 58.8414 21.8725C58.9374 21.9285 59.0494 21.9685 59.1774 21.9925C59.3054 22.0165 59.4374 22.0285 59.5734 22.0285C59.9094 22.0285 60.1695 21.9725 60.3535 21.8605C60.5375 21.7485 60.6734 21.6165 60.7614 21.4645C60.8494 21.3045 60.9014 21.1445 60.9174 20.9845C60.9414 20.8245 60.9534 20.6965 60.9534 20.6005V19.9645V19.9645ZM66.14 16.7965V14.9365H64.436V16.7965H63.404V17.9365H64.436V21.5965C64.436 21.9085 64.4881 22.1605 64.5921 22.3525C64.6961 22.5445 64.8361 22.6925 65.0121 22.7965C65.1961 22.9005 65.4041 22.9685 65.6361 23.0005C65.8761 23.0405 66.128 23.0605 66.392 23.0605C66.56 23.0605 66.732 23.0565 66.908 23.0485C67.084 23.0405 67.2441 23.0245 67.3881 23.0005V21.6805C67.3081 21.6965 67.2241 21.7085 67.1361 21.7165C67.0481 21.7245 66.9561 21.7285 66.8601 21.7285C66.5721 21.7285 66.38 21.6805 66.284 21.5845C66.188 21.4885 66.14 21.2965 66.14 21.0085V17.9365H67.3881V16.7965H66.14V16.7965ZM73.0506 19.9045C73.0506 19.6565 73.0746 19.4125 73.1226 19.1725C73.1706 18.9325 73.2507 18.7205 73.3627 18.5365C73.4827 18.3525 73.6386 18.2045 73.8306 18.0925C74.0226 17.9725 74.2626 17.9125 74.5506 17.9125C74.8386 17.9125 75.0786 17.9725 75.2706 18.0925C75.4706 18.2045 75.6267 18.3525 75.7387 18.5365C75.8587 18.7205 75.9427 18.9325 75.9907 19.1725C76.0387 19.4125 76.0626 19.6565 76.0626 19.9045C76.0626 20.1525 76.0387 20.3965 75.9907 20.6365C75.9427 20.8685 75.8587 21.0805 75.7387 21.2725C75.6267 21.4565 75.4706 21.6045 75.2706 21.7165C75.0786 21.8285 74.8386 21.8845 74.5506 21.8845C74.2626 21.8845 74.0226 21.8285 73.8306 21.7165C73.6386 21.6045 73.4827 21.4565 73.3627 21.2725C73.2507 21.0805 73.1706 20.8685 73.1226 20.6365C73.0746 20.3965 73.0506 20.1525 73.0506 19.9045ZM71.3467 19.9045C71.3467 20.4005 71.4226 20.8485 71.5746 21.2485C71.7266 21.6485 71.9427 21.9925 72.2227 22.2805C72.5027 22.5605 72.8386 22.7765 73.2306 22.9285C73.6226 23.0805 74.0626 23.1565 74.5506 23.1565C75.0386 23.1565 75.4786 23.0805 75.8706 22.9285C76.2706 22.7765 76.6107 22.5605 76.8907 22.2805C77.1707 21.9925 77.3866 21.6485 77.5386 21.2485C77.6906 20.8485 77.7667 20.4005 77.7667 19.9045C77.7667 19.4085 77.6906 18.9605 77.5386 18.5605C77.3866 18.1525 77.1707 17.8085 76.8907 17.5285C76.6107 17.2405 76.2706 17.0205 75.8706 16.8685C75.4786 16.7085 75.0386 16.6285 74.5506 16.6285C74.0626 16.6285 73.6226 16.7085 73.2306 16.8685C72.8386 17.0205 72.5027 17.2405 72.2227 17.5285C71.9427 17.8085 71.7266 18.1525 71.5746 18.5605C71.4226 18.9605 71.3467 19.4085 71.3467 19.9045ZM78.8747 16.7965V23.0005H80.5786V19.7485C80.5786 19.1165 80.6827 18.6645 80.8907 18.3925C81.0987 18.1125 81.4346 17.9725 81.8986 17.9725C82.3066 17.9725 82.5907 18.1005 82.7507 18.3565C82.9107 18.6045 82.9907 18.9845 82.9907 19.4965V23.0005H84.6947V19.1845C84.6947 18.8005 84.6587 18.4525 84.5867 18.1405C84.5227 17.8205 84.4067 17.5525 84.2387 17.3365C84.0707 17.1125 83.8387 16.9405 83.5427 16.8205C83.2547 16.6925 82.8826 16.6285 82.4266 16.6285C82.0666 16.6285 81.7146 16.7125 81.3706 16.8805C81.0266 17.0405 80.7467 17.3005 80.5307 17.6605H80.4946V16.7965H78.8747V16.7965ZM97.6678 23.0005L99.9718 14.4325H98.1238L96.7198 20.3365H96.6958L95.2317 14.4325H93.4677L91.9797 20.2645H91.9558L90.5998 14.4325H88.7157L90.9838 23.0005H92.8918L94.3198 17.1685H94.3437L95.7957 23.0005H97.6678ZM100.66 14.4325V23.0005H102.364V19.7485C102.364 19.1165 102.468 18.6645 102.676 18.3925C102.884 18.1125 103.22 17.9725 103.684 17.9725C104.092 17.9725 104.376 18.1005 104.536 18.3565C104.696 18.6045 104.776 18.9845 104.776 19.4965V23.0005H106.48V19.1845C106.48 18.8005 106.444 18.4525 106.372 18.1405C106.308 17.8205 106.192 17.5525 106.024 17.3365C105.856 17.1125 105.624 16.9405 105.328 16.8205C105.04 16.6925 104.668 16.6285 104.212 16.6285C103.892 16.6285 103.564 16.7125 103.228 16.8805C102.892 17.0405 102.616 17.3005 102.4 17.6605H102.364V14.4325H100.66V14.4325ZM107.701 18.7045C107.725 18.3045 107.825 17.9725 108.001 17.7085C108.177 17.4445 108.401 17.2325 108.673 17.0725C108.945 16.9125 109.249 16.8005 109.585 16.7365C109.929 16.6645 110.273 16.6285 110.617 16.6285C110.929 16.6285 111.245 16.6525 111.565 16.7005C111.885 16.7405 112.177 16.8245 112.441 16.9525C112.705 17.0805 112.921 17.2605 113.089 17.4925C113.257 17.7165 113.341 18.0165 113.341 18.3925V21.6205C113.341 21.9005 113.357 22.1685 113.389 22.4245C113.421 22.6805 113.477 22.8725 113.557 23.0005H111.829C111.797 22.9045 111.769 22.8085 111.745 22.7125C111.729 22.609 111.717 22.5049 111.709 22.4005C111.437 22.6805 111.117 22.8765 110.749 22.9885C110.381 23.1005 110.005 23.1565 109.621 23.1565C109.325 23.1565 109.049 23.1205 108.793 23.0485C108.537 22.9765 108.313 22.8645 108.121 22.7125C107.929 22.5605 107.777 22.3685 107.665 22.1365C107.561 21.9045 107.509 21.6285 107.509 21.3085C107.509 20.9565 107.569 20.6685 107.689 20.4445C107.817 20.2125 107.977 20.0285 108.169 19.8925C108.369 19.7565 108.593 19.6565 108.841 19.5925C109.097 19.5205 109.353 19.4645 109.609 19.4245C109.865 19.3845 110.117 19.3525 110.365 19.3285C110.613 19.3045 110.833 19.2685 111.025 19.2205C111.217 19.1725 111.369 19.1045 111.481 19.0165C111.593 18.9205 111.645 18.7845 111.637 18.6085C111.637 18.4245 111.605 18.2805 111.541 18.1765C111.485 18.0645 111.405 17.9805 111.301 17.9245C111.205 17.8605 111.089 17.8205 110.953 17.8045C110.825 17.7805 110.685 17.7685 110.533 17.7685C110.197 17.7685 109.933 17.8405 109.741 17.9845C109.549 18.1285 109.437 18.3685 109.405 18.7045H107.701V18.7045ZM111.637 19.9645C111.565 20.0285 111.473 20.0805 111.361 20.1205C111.257 20.1525 111.141 20.1805 111.013 20.2045C110.893 20.2285 110.765 20.2485 110.629 20.2645C110.493 20.2805 110.357 20.3005 110.221 20.3245C110.093 20.3485 109.965 20.3805 109.837 20.4205C109.717 20.4605 109.609 20.5165 109.513 20.5885C109.425 20.6525 109.353 20.7365 109.297 20.8405C109.241 20.9445 109.213 21.0765 109.213 21.2365C109.213 21.3885 109.241 21.5165 109.297 21.6205C109.351 21.7222 109.429 21.8088 109.525 21.8725C109.621 21.9285 109.733 21.9685 109.861 21.9925C109.989 22.0165 110.121 22.0285 110.257 22.0285C110.593 22.0285 110.853 21.9725 111.037 21.8605C111.221 21.7485 111.357 21.6165 111.445 21.4645C111.533 21.3045 111.585 21.1445 111.601 20.9845C111.625 20.8245 111.637 20.6965 111.637 20.6005V19.9645V19.9645ZM116.824 16.7965V14.9365H115.12V16.7965H114.088V17.9365H115.12V21.5965C115.12 21.9085 115.172 22.1605 115.276 22.3525C115.38 22.5445 115.52 22.6925 115.696 22.7965C115.88 22.9005 116.088 22.9685 116.32 23.0005C116.56 23.0405 116.812 23.0605 117.076 23.0605C117.244 23.0605 117.416 23.0565 117.592 23.0485C117.768 23.0405 117.928 23.0245 118.072 23.0005V21.6805C117.992 21.6965 117.908 21.7085 117.82 21.7165C117.732 21.7245 117.64 21.7285 117.544 21.7285C117.256 21.7285 117.064 21.6805 116.968 21.5845C116.872 21.4885 116.824 21.2965 116.824 21.0085V17.9365H118.072V16.7965H116.824V16.7965ZM120.202 20.9845H118.582C118.598 21.4005 118.69 21.7485 118.858 22.0285C119.034 22.3005 119.254 22.5205 119.518 22.6885C119.79 22.8565 120.098 22.9765 120.442 23.0485C120.786 23.1205 121.138 23.1565 121.498 23.1565C121.85 23.1565 122.194 23.1205 122.53 23.0485C122.874 22.9845 123.178 22.8685 123.442 22.7005C123.706 22.5325 123.918 22.3125 124.078 22.0405C124.246 21.7605 124.33 21.4165 124.33 21.0085C124.33 20.7205 124.274 20.4805 124.162 20.2885C124.05 20.0885 123.902 19.9245 123.718 19.7965C123.534 19.6605 123.322 19.5525 123.082 19.4725C122.85 19.3925 122.61 19.3245 122.362 19.2685C122.122 19.2125 121.886 19.1605 121.654 19.1125C121.422 19.0645 121.214 19.0125 121.03 18.9565C120.854 18.8925 120.71 18.8125 120.598 18.7165C120.486 18.6205 120.43 18.4965 120.43 18.3445C120.43 18.2165 120.462 18.1165 120.526 18.0445C120.59 17.9645 120.666 17.9045 120.754 17.8645C120.85 17.8245 120.954 17.8005 121.066 17.7925C121.178 17.7765 121.282 17.7685 121.378 17.7685C121.682 17.7685 121.946 17.8285 122.17 17.9485C122.394 18.0605 122.518 18.2805 122.542 18.6085H124.162C124.13 18.2245 124.03 17.9085 123.862 17.6605C123.702 17.4045 123.498 17.2005 123.25 17.0485C123.002 16.8965 122.718 16.7885 122.398 16.7245C122.086 16.6605 121.762 16.6285 121.426 16.6285C121.09 16.6285 120.762 16.6605 120.442 16.7245C120.122 16.7805 119.834 16.8845 119.578 17.0365C119.322 17.1805 119.114 17.3805 118.954 17.6365C118.802 17.8925 118.726 18.2205 118.726 18.6205C118.726 18.8925 118.782 19.1245 118.894 19.3165C119.006 19.5005 119.154 19.6565 119.338 19.7845C119.522 19.9045 119.73 20.0045 119.962 20.0845C120.202 20.1565 120.446 20.2205 120.694 20.2765C121.302 20.4045 121.774 20.5325 122.11 20.6605C122.454 20.7885 122.626 20.9805 122.626 21.2365C122.626 21.3885 122.59 21.5165 122.518 21.6205C122.446 21.7165 122.354 21.7965 122.242 21.8605C122.138 21.9165 122.018 21.9605 121.882 21.9925C121.754 22.0165 121.63 22.0285 121.51 22.0285C121.342 22.0285 121.178 22.0085 121.018 21.9685C120.866 21.9285 120.73 21.8685 120.61 21.7885C120.49 21.7005 120.39 21.5925 120.31 21.4645C120.238 21.3285 120.202 21.1685 120.202 20.9845V20.9845ZM127.668 19.6885L128.784 16.5445H128.808L129.888 19.6885H127.668V19.6885ZM127.848 14.4325L124.608 23.0005H126.504L127.176 21.0925H130.38L131.028 23.0005H132.984L129.78 14.4325H127.848V14.4325ZM136.675 21.8845C136.403 21.8845 136.171 21.8285 135.979 21.7165C135.787 21.6045 135.631 21.4605 135.511 21.2845C135.399 21.1005 135.315 20.8885 135.259 20.6485C135.211 20.4085 135.187 20.1645 135.187 19.9165C135.187 19.6605 135.211 19.4125 135.259 19.1725C135.307 18.9325 135.387 18.7205 135.499 18.5365C135.619 18.3525 135.771 18.2045 135.955 18.0925C136.147 17.9725 136.383 17.9125 136.663 17.9125C136.935 17.9125 137.163 17.9725 137.347 18.0925C137.539 18.2045 137.695 18.3565 137.815 18.5485C137.935 18.7325 138.019 18.9445 138.067 19.1845C138.123 19.4245 138.151 19.6685 138.151 19.9165C138.151 20.1645 138.127 20.4085 138.079 20.6485C138.031 20.8885 137.947 21.1005 137.827 21.2845C137.715 21.4605 137.563 21.6045 137.371 21.7165C137.187 21.8285 136.955 21.8845 136.675 21.8845ZM133.543 16.7965V25.1725H135.247V22.2325H135.271C135.479 22.5365 135.743 22.7685 136.063 22.9285C136.391 23.0805 136.747 23.1565 137.131 23.1565C137.587 23.1565 137.983 23.0685 138.319 22.8925C138.663 22.7165 138.947 22.4805 139.171 22.1845C139.403 21.8885 139.575 21.5485 139.687 21.1645C139.799 20.7805 139.855 20.3805 139.855 19.9645C139.855 19.5245 139.799 19.1045 139.687 18.7045C139.575 18.2965 139.403 17.9405 139.171 17.6365C138.939 17.3325 138.647 17.0885 138.295 16.9045C137.943 16.7205 137.523 16.6285 137.035 16.6285C136.651 16.6285 136.299 16.7045 135.979 16.8565C135.659 17.0085 135.395 17.2525 135.187 17.5885H135.163V16.7965H133.543ZM144.01 21.8845C143.738 21.8845 143.506 21.8285 143.314 21.7165C143.122 21.6045 142.966 21.4605 142.846 21.2845C142.734 21.1005 142.65 20.8885 142.594 20.6485C142.546 20.4085 142.522 20.1645 142.522 19.9165C142.522 19.6605 142.546 19.4125 142.594 19.1725C142.642 18.9325 142.722 18.7205 142.834 18.5365C142.954 18.3525 143.106 18.2045 143.29 18.0925C143.482 17.9725 143.718 17.9125 143.998 17.9125C144.27 17.9125 144.498 17.9725 144.682 18.0925C144.874 18.2045 145.03 18.3565 145.15 18.5485C145.27 18.7325 145.354 18.9445 145.402 19.1845C145.458 19.4245 145.486 19.6685 145.486 19.9165C145.486 20.1645 145.462 20.4085 145.414 20.6485C145.366 20.8885 145.282 21.1005 145.162 21.2845C145.05 21.4605 144.898 21.6045 144.706 21.7165C144.522 21.8285 144.29 21.8845 144.01 21.8845ZM140.878 16.7965V25.1725H142.582V22.2325H142.606C142.814 22.5365 143.078 22.7685 143.398 22.9285C143.726 23.0805 144.082 23.1565 144.466 23.1565C144.922 23.1565 145.318 23.0685 145.654 22.8925C145.998 22.7165 146.282 22.4805 146.506 22.1845C146.738 21.8885 146.91 21.5485 147.022 21.1645C147.134 20.7805 147.19 20.3805 147.19 19.9645C147.19 19.5245 147.134 19.1045 147.022 18.7045C146.91 18.2965 146.738 17.9405 146.506 17.6365C146.274 17.3325 145.982 17.0885 145.63 16.9045C145.278 16.7205 144.858 16.6285 144.37 16.6285C143.986 16.6285 143.634 16.7045 143.314 16.8565C142.994 17.0085 142.73 17.2525 142.522 17.5885H142.498V16.7965H140.878Z" fill="white"/>
</g>
<defs>
<clipPath id="clip0_1112_629">
<rect width="160" height="36" fill="white"/>
</clipPath>
</defs>
</svg>
